<svg width="91" height="16" viewBox="0 0 91 16" fill="none" xmlns="http://www.w3.org/2000/svg">
<path d="M53.6905 12.5098H48.8483L48.1123 14.7372H44.1223L49.1001 1.08215H53.4775L58.4359 14.7372H54.4265L53.6905 12.5098ZM52.7414 9.60443L51.2694 5.18834L49.8167 9.60443H52.7414Z" fill="#313131"/>
<path d="M21.8978 4.12306V6.35047H26.2558V9.23642H21.8978V11.6963H26.8369V14.7372H18.1016V1.08215H26.8369V4.12306H21.8978Z" fill="#313131"/>
<path d="M15.9405 1.08215V14.7372H12.1442V7.2027L9.56819 14.7372H6.39171L3.79629 7.14459V14.7372H0V1.08215H4.59041L8.01869 9.95307L11.3695 1.08215H15.9405Z" fill="#313131"/>
<path d="M37.6533 0.955078C38.6889 1.13962 39.6474 1.54634 40.4775 2.125L41.1533 1.4502L42.9404 3.23633L42.2637 3.91211C42.5988 4.39272 42.8738 4.91715 43.084 5.47363H39.7588C38.9906 4.45089 37.7672 3.78909 36.3896 3.78906C34.0643 3.78919 32.1787 5.67463 32.1787 8C32.1787 10.3254 34.0643 12.2108 36.3896 12.2109C38.2747 12.2109 39.8704 10.9717 40.4072 9.26367H35.9688V6.7373H44.3896V9.26367H43.4336C43.249 10.2995 42.8425 11.2576 42.2637 12.0879L42.9395 12.7637L41.1533 14.5498L40.4775 13.874C39.6473 14.4528 38.6891 14.8594 37.6533 15.0439V16H35.127V15.0439C34.0906 14.8594 33.1314 14.4533 32.3008 13.874L31.626 14.5498L29.8398 12.7637L30.5146 12.0879C29.936 11.2577 29.5302 10.2993 29.3457 9.26367H28.3896V6.7373H29.3447C29.5292 5.70097 29.9355 4.74173 30.5146 3.91113L29.8398 3.23633L31.626 1.4502L32.3008 2.125C33.1313 1.54592 34.0907 1.13961 35.127 0.955078V0H37.6533V0.955078Z" fill="url(#paint0_linear_554_73710)"/>
<path d="M69.9768 0.919434C70.6488 0.919434 71.2052 1.08141 71.6448 1.40479C72.0841 1.72814 72.3571 2.17026 72.4631 2.73096H70.8635C70.7776 2.58952 70.6586 2.48056 70.5071 2.40479C70.3607 2.32915 70.1865 2.29152 69.9846 2.2915C69.6109 2.2915 69.3151 2.41247 69.0979 2.65479C68.8857 2.89732 68.7795 3.22403 68.7795 3.6333C68.7796 4.09276 68.8932 4.44358 69.1204 4.68604C69.3527 4.92346 69.6887 5.04243 70.1282 5.04248C70.6486 5.04248 71.0201 4.80731 71.2424 4.3374H69.7493V3.26904H72.5237V4.70947C72.4075 4.99235 72.2354 5.25785 72.0081 5.50537C71.7858 5.75279 71.5028 5.95704 71.1594 6.11865C70.8159 6.27527 70.4241 6.35399 69.9846 6.354C69.4492 6.354 68.9741 6.24043 68.5598 6.01318C68.1506 5.78078 67.8321 5.45951 67.6047 5.05029C67.3825 4.63607 67.2708 4.16368 67.2708 3.6333C67.2708 3.10786 67.3825 2.64021 67.6047 2.23096C67.8321 1.81663 68.1505 1.49544 68.5598 1.26807C68.969 1.03574 69.4414 0.919446 69.9768 0.919434ZM61.6624 0.972168C62.2232 0.972168 62.7137 1.08659 63.1331 1.31396C63.5574 1.53626 63.8832 1.84928 64.1106 2.25342C64.3379 2.65757 64.4524 3.11982 64.4524 3.64014C64.4524 4.15552 64.3352 4.6158 64.1028 5.02002C63.8754 5.42406 63.5495 5.74274 63.1252 5.9751C62.706 6.20233 62.218 6.31592 61.6624 6.31592H59.5481V0.972168H61.6624ZM66.6067 6.31592H65.1213V0.972168H66.6067V6.31592ZM74.675 6.31592H73.1887V0.972168H74.675V6.31592ZM79.5452 2.15479H78.1204V6.31592H76.635V2.15479H75.2249V0.972168H79.5452V2.15479ZM85.3323 6.31592H83.7629L83.4749 5.44385H81.5803L81.2922 6.31592H79.7307L81.679 0.972168H83.3918L85.3323 6.31592ZM87.302 5.1792H88.9612V6.31592H85.8157V0.972168H87.302V5.1792ZM61.0334 5.00439H61.5491C61.9836 5.00439 62.3249 4.88543 62.5725 4.64795C62.8199 4.41049 62.9436 4.07446 62.9436 3.64014C62.9436 3.20068 62.82 2.86194 62.5725 2.62451C62.3249 2.382 61.9836 2.26123 61.5491 2.26123H61.0334V5.00439ZM81.9592 4.30713H83.1038L82.5276 2.57959L81.9592 4.30713Z" fill="#313131"/>
<path d="M64.0901 8.46826C64.7116 8.46826 65.2076 8.61466 65.5764 8.90771C65.9502 9.19572 66.1498 9.60299 66.175 10.1284H64.5608C64.5557 9.96673 64.5044 9.845 64.4084 9.76416C64.3176 9.68359 64.1992 9.64313 64.053 9.64307C63.9418 9.64307 63.8503 9.67601 63.7795 9.7417C63.7089 9.80735 63.6741 9.90085 63.6741 10.022C63.6741 10.123 63.7116 10.2118 63.7874 10.2876C63.8682 10.3583 63.9671 10.4215 64.0833 10.4771C64.1994 10.5275 64.3709 10.5936 64.5979 10.6743C64.9364 10.7905 65.2146 10.9067 65.4319 11.0229C65.6542 11.1341 65.8436 11.2933 66.0002 11.5005C66.1618 11.7025 66.2434 11.9598 66.2434 12.2729C66.2434 12.5913 66.1619 12.8768 66.0002 13.1294C65.8436 13.382 65.6139 13.5815 65.3108 13.728C65.0127 13.8746 64.6585 13.9478 64.2493 13.9478C63.628 13.9477 63.1181 13.8012 62.719 13.5083C62.3198 13.2102 62.1048 12.7856 62.0745 12.2349H63.6584C63.6736 12.4217 63.7295 12.5581 63.8254 12.644C63.9214 12.7299 64.045 12.7729 64.1965 12.7729C64.333 12.7729 64.4446 12.74 64.5305 12.6743C64.621 12.6037 64.6662 12.5081 64.6663 12.3872C64.6663 12.2306 64.5931 12.1088 64.4465 12.0229C64.3 11.9371 64.0628 11.8409 63.7346 11.7349C63.386 11.6187 63.1023 11.508 62.885 11.4019C62.6729 11.2907 62.4861 11.1314 62.3245 10.9243C62.1679 10.7122 62.0901 10.4366 62.0901 10.0981C62.0901 9.75456 62.1751 9.46079 62.3469 9.21826C62.5187 8.97074 62.7567 8.78401 63.0598 8.65771C63.3628 8.53147 63.7063 8.46831 64.0901 8.46826ZM72.9631 11.6519C72.9632 11.9397 73.0281 12.1623 73.1594 12.3188C73.2958 12.4755 73.5009 12.5532 73.7737 12.5532C74.0465 12.5532 74.2515 12.4754 74.3879 12.3188C74.5294 12.1572 74.5998 11.9346 74.5999 11.6519V8.55127H76.0852V11.6519C76.0852 12.1418 75.9818 12.5611 75.7747 12.9097C75.5676 13.2531 75.2846 13.5131 74.926 13.6899C74.5723 13.8617 74.1779 13.9478 73.7434 13.9478C73.3089 13.9477 72.92 13.8617 72.5764 13.6899C72.2379 13.5131 71.9698 13.2532 71.7727 12.9097C71.5808 12.5662 71.4847 12.1468 71.4846 11.6519V8.55127H72.9631V11.6519ZM87.3694 8.46826C87.8747 8.46826 88.3349 8.58447 88.7493 8.81689C89.1686 9.04932 89.4999 9.37509 89.7424 9.79443C89.9849 10.2087 90.1057 10.6791 90.1057 11.2046C90.1057 11.7299 89.9848 12.2023 89.7424 12.6216C89.4999 13.0358 89.1686 13.3617 88.7493 13.5991C88.3299 13.8315 87.8696 13.9478 87.3694 13.9478C86.8693 13.9477 86.4097 13.8315 85.9905 13.5991C85.5711 13.3616 85.2371 13.0359 84.9895 12.6216C84.7471 12.2023 84.6263 11.7299 84.6262 11.2046C84.6262 10.6791 84.747 10.2087 84.9895 9.79443C85.2371 9.37506 85.5711 9.04932 85.9905 8.81689C86.4097 8.58456 86.8693 8.46832 87.3694 8.46826ZM70.9583 9.73389H69.5334V13.895H68.0481V9.73389H66.6379V8.55127H70.9583V9.73389ZM79.0178 8.55127C79.5787 8.55127 80.0691 8.66569 80.4885 8.89307C80.9128 9.11537 81.2388 9.42842 81.4661 9.83252C81.6934 10.2367 81.8069 10.6989 81.8069 11.2192C81.8069 11.7346 81.6907 12.1949 81.4583 12.5991C81.2309 13.0032 80.9051 13.3218 80.4807 13.5542C80.0614 13.7815 79.5736 13.895 79.0178 13.895H76.9036V8.55127H79.0178ZM83.9622 13.895H82.4768V8.55127H83.9622V13.895ZM78.3889 12.5835H78.9045C79.3389 12.5834 79.6795 12.4645 79.927 12.2271C80.1746 11.9896 80.2991 11.6538 80.2991 11.2192C80.299 10.7798 80.1745 10.441 79.927 10.2036C79.6795 9.96136 79.3387 9.84039 78.9045 9.84033H78.3889V12.5835ZM87.3694 9.83252C86.9857 9.8326 86.6852 9.95627 86.468 10.2036C86.2507 10.4461 86.1418 10.7802 86.1418 11.2046C86.1419 11.6238 86.2508 11.9571 86.468 12.2046C86.6852 12.447 86.9856 12.5688 87.3694 12.5688C87.7483 12.5688 88.0466 12.4444 88.2639 12.1968C88.4861 11.9493 88.5979 11.6187 88.5979 11.2046C88.5979 10.7802 88.4862 10.4461 88.2639 10.2036C88.0467 9.95619 87.7482 9.83252 87.3694 9.83252Z" fill="#313131"/>
<defs>
<linearGradient id="paint0_linear_554_73710" x1="50.9096" y1="0" x2="50.9096" y2="15.9995" gradientUnits="userSpaceOnUse">
<stop stop-color="#249FDD"/>
<stop offset="1" stop-color="#27DC6F"/>
</linearGradient>
</defs>
</svg>
