<svg width="272" height="48" viewBox="0 0 272 48" fill="none" xmlns="http://www.w3.org/2000/svg">
<path d="M38.9082 9.26074C38.9082 9.26074 46.6159 9.2607 51.1182 9.64258C55.6204 10.0245 54.5518 24 54.5518 24C54.5518 24.0583 54.5486 38.6691 52.7197 39.7998C50.887 40.9321 44.1738 40.8828 44.1738 40.8828C44.1714 40.9285 43.945 45.2371 43.8691 45.8467C43.7931 46.4564 35.587 41.2116 35.5508 41.1885C35.5034 41.195 26.682 42.4141 20.4414 41.5703C14.184 40.7242 14.2607 36.834 14.2607 36.834L17.3887 33.7021C17.3887 33.7021 35.0945 34.9414 37.1533 31.335C39.2112 27.7283 38.9082 9.26074 38.9082 9.26074ZM30.5732 9.84375V24H10.4199V9.84375H30.5732Z" fill="#2696DB"/>
<path d="M34.3672 0C37.47 3.39236e-05 39.9951 2.52686 39.9951 5.63281V7.42285H50.373C53.4759 7.423 56.0004 9.94965 56 13.0557V36.7832C55.9998 39.889 53.4751 42.416 50.3721 42.416H45.6553V46.3574C45.6553 46.9524 45.3335 47.502 44.8145 47.792C44.2957 48.082 43.6598 48.0682 43.1533 47.7559L34.4951 42.416H18.6514C16.3413 42.416 14.3523 41.0147 13.4863 39.0176L9.32227 42.8096C8.84027 43.2488 8.1439 43.3583 7.55469 43.0967C6.96089 42.8336 6.57816 42.2447 6.57812 41.5947V34.9922H5.62793C2.52484 34.9922 0 32.4653 0 29.3594V5.63281C0 2.52684 2.52484 0 5.62793 0H34.3672ZM39.9951 10.707V29.3604C39.9949 32.4661 37.4701 34.9931 34.3672 34.9932H17.9072L16.3047 36.4521V36.7832C16.3048 38.0783 17.3577 39.1318 18.6514 39.1318H34.96C35.2638 39.1318 35.5616 39.2163 35.8203 39.376L42.374 43.417V40.7734C42.3741 39.8664 43.1087 39.1318 44.0146 39.1318H50.373C51.6666 39.1317 52.7186 38.078 52.7188 36.7832V13.0557C52.7187 11.7608 51.6667 10.7072 50.373 10.707H39.9951ZM5.62793 3.28418C4.33386 3.28418 3.28125 4.33782 3.28125 5.63281V29.3604C3.28148 30.6552 4.33428 31.708 5.62793 31.708H8.21875C9.12471 31.7081 9.85938 32.4438 9.85938 33.3506V37.8809L16.1689 32.1357C16.4709 31.8611 16.8644 31.7081 17.2725 31.708H34.3672C35.661 31.708 36.7139 30.6543 36.7139 29.3594V5.63281C36.7139 4.33784 35.661 3.28421 34.3672 3.28418H5.62793ZM17.5352 7.22461C18.5116 7.22465 19.412 7.55737 20.1289 8.11523C20.8462 7.5573 21.7471 7.22464 22.7236 7.22461H30.5498C31.456 7.22461 32.1913 7.95944 32.1914 8.86621V24.5342C32.1912 25.4412 31.4557 26.1758 30.5498 26.1758H22.7236C22.2066 26.1759 21.7696 26.6133 21.7695 27.1309V27.3486C21.6897 29.5235 18.5689 29.5251 18.4883 27.3486V27.1309C18.4882 26.6133 18.0519 26.1759 17.5352 26.1758H9.70801C8.80232 26.1755 8.06755 25.4407 8.06738 24.5342V8.86621C8.06747 7.95932 8.80227 7.22487 9.70801 7.22461H17.5352ZM11.3486 10.5088V22.8926H17.5352C17.8628 22.8926 18.1816 22.9302 18.4883 23.001V11.4639C18.4883 10.9463 18.0519 10.5089 17.5352 10.5088H11.3486ZM22.7236 10.5088C22.2068 10.5089 21.7695 10.9463 21.7695 11.4639V23.001C22.0764 22.9301 22.3955 22.8916 22.7236 22.8916H28.9102V10.5088H22.7236Z" fill="#313131"/>
<path d="M79.94 12.98C79.94 13.7933 79.7533 14.54 79.38 15.22C79.0067 15.8867 78.4333 16.4267 77.66 16.84C76.8867 17.2533 75.9267 17.46 74.78 17.46H72.66V22.5H69.24V8.46H74.78C75.9 8.46 76.8467 8.65333 77.62 9.04C78.3933 9.42667 78.9733 9.96 79.36 10.64C79.7467 11.32 79.94 12.1 79.94 12.98ZM74.52 14.74C75.1733 14.74 75.66 14.5867 75.98 14.28C76.3 13.9733 76.46 13.54 76.46 12.98C76.46 12.42 76.3 11.9867 75.98 11.68C75.66 11.3733 75.1733 11.22 74.52 11.22H72.66V14.74H74.52ZM85.1405 13.2C85.5405 12.5867 86.0405 12.1067 86.6405 11.76C87.2405 11.4 87.9071 11.22 88.6405 11.22V14.84H87.7005C86.8471 14.84 86.2071 15.0267 85.7805 15.4C85.3538 15.76 85.1405 16.4 85.1405 17.32V22.5H81.7205V11.34H85.1405V13.2ZM95.3552 22.66C94.2618 22.66 93.2752 22.4267 92.3952 21.96C91.5285 21.4933 90.8418 20.8267 90.3352 19.96C89.8418 19.0933 89.5952 18.08 89.5952 16.92C89.5952 15.7733 89.8485 14.7667 90.3552 13.9C90.8618 13.02 91.5552 12.3467 92.4352 11.88C93.3152 11.4133 94.3018 11.18 95.3952 11.18C96.4885 11.18 97.4752 11.4133 98.3552 11.88C99.2352 12.3467 99.9285 13.02 100.435 13.9C100.942 14.7667 101.195 15.7733 101.195 16.92C101.195 18.0667 100.935 19.08 100.415 19.96C99.9085 20.8267 99.2085 21.4933 98.3152 21.96C97.4352 22.4267 96.4485 22.66 95.3552 22.66ZM95.3552 19.7C96.0085 19.7 96.5618 19.46 97.0152 18.98C97.4818 18.5 97.7152 17.8133 97.7152 16.92C97.7152 16.0267 97.4885 15.34 97.0352 14.86C96.5952 14.38 96.0485 14.14 95.3952 14.14C94.7285 14.14 94.1752 14.38 93.7352 14.86C93.2952 15.3267 93.0752 16.0133 93.0752 16.92C93.0752 17.8133 93.2885 18.5 93.7152 18.98C94.1552 19.46 94.7018 19.7 95.3552 19.7ZM107.25 11.18C108.036 11.18 108.723 11.34 109.31 11.66C109.91 11.98 110.37 12.4 110.69 12.92V11.34H114.11V22.48C114.11 23.5067 113.903 24.4333 113.49 25.26C113.09 26.1 112.47 26.7667 111.63 27.26C110.803 27.7533 109.77 28 108.53 28C106.876 28 105.536 27.6067 104.51 26.82C103.483 26.0467 102.896 24.9933 102.75 23.66H106.13C106.236 24.0867 106.49 24.42 106.89 24.66C107.29 24.9133 107.783 25.04 108.37 25.04C109.076 25.04 109.636 24.8333 110.05 24.42C110.476 24.02 110.69 23.3733 110.69 22.48V20.9C110.356 21.42 109.896 21.8467 109.31 22.18C108.723 22.5 108.036 22.66 107.25 22.66C106.33 22.66 105.496 22.4267 104.75 21.96C104.003 21.48 103.41 20.8067 102.97 19.94C102.543 19.06 102.33 18.0467 102.33 16.9C102.33 15.7533 102.543 14.7467 102.97 13.88C103.41 13.0133 104.003 12.3467 104.75 11.88C105.496 11.4133 106.33 11.18 107.25 11.18ZM110.69 16.92C110.69 16.0667 110.45 15.3933 109.97 14.9C109.503 14.4067 108.93 14.16 108.25 14.16C107.57 14.16 106.99 14.4067 106.51 14.9C106.043 15.38 105.81 16.0467 105.81 16.9C105.81 17.7533 106.043 18.4333 106.51 18.94C106.99 19.4333 107.57 19.68 108.25 19.68C108.93 19.68 109.503 19.4333 109.97 18.94C110.45 18.4467 110.69 17.7733 110.69 16.92ZM120.004 13.2C120.404 12.5867 120.904 12.1067 121.504 11.76C122.104 11.4 122.77 11.22 123.504 11.22V14.84H122.564C121.71 14.84 121.07 15.0267 120.644 15.4C120.217 15.76 120.004 16.4 120.004 17.32V22.5H116.584V11.34H120.004V13.2ZM135.658 16.74C135.658 17.06 135.638 17.3933 135.598 17.74H127.858C127.912 18.4333 128.132 18.9667 128.518 19.34C128.918 19.7 129.405 19.88 129.978 19.88C130.832 19.88 131.425 19.52 131.758 18.8H135.398C135.212 19.5333 134.872 20.1933 134.378 20.78C133.898 21.3667 133.292 21.8267 132.558 22.16C131.825 22.4933 131.005 22.66 130.098 22.66C129.005 22.66 128.032 22.4267 127.178 21.96C126.325 21.4933 125.658 20.8267 125.178 19.96C124.698 19.0933 124.458 18.08 124.458 16.92C124.458 15.76 124.692 14.7467 125.158 13.88C125.638 13.0133 126.305 12.3467 127.158 11.88C128.012 11.4133 128.992 11.18 130.098 11.18C131.178 11.18 132.138 11.4067 132.978 11.86C133.818 12.3133 134.472 12.96 134.938 13.8C135.418 14.64 135.658 15.62 135.658 16.74ZM132.158 15.84C132.158 15.2533 131.958 14.7867 131.558 14.44C131.158 14.0933 130.658 13.92 130.058 13.92C129.485 13.92 128.998 14.0867 128.598 14.42C128.212 14.7533 127.972 15.2267 127.878 15.84H132.158ZM142.003 22.66C141.029 22.66 140.163 22.4933 139.403 22.16C138.643 21.8267 138.043 21.3733 137.603 20.8C137.163 20.2133 136.916 19.56 136.863 18.84H140.243C140.283 19.2267 140.463 19.54 140.783 19.78C141.103 20.02 141.496 20.14 141.963 20.14C142.389 20.14 142.716 20.06 142.943 19.9C143.183 19.7267 143.303 19.5067 143.303 19.24C143.303 18.92 143.136 18.6867 142.803 18.54C142.469 18.38 141.929 18.2067 141.183 18.02C140.383 17.8333 139.716 17.64 139.183 17.44C138.649 17.2267 138.189 16.9 137.803 16.46C137.416 16.0067 137.223 15.4 137.223 14.64C137.223 14 137.396 13.42 137.743 12.9C138.103 12.3667 138.623 11.9467 139.303 11.64C139.996 11.3333 140.816 11.18 141.763 11.18C143.163 11.18 144.263 11.5267 145.063 12.22C145.876 12.9133 146.343 13.8333 146.463 14.98H143.303C143.249 14.5933 143.076 14.2867 142.783 14.06C142.503 13.8333 142.129 13.72 141.663 13.72C141.263 13.72 140.956 13.8 140.743 13.96C140.529 14.1067 140.423 14.3133 140.423 14.58C140.423 14.9 140.589 15.14 140.923 15.3C141.269 15.46 141.803 15.62 142.523 15.78C143.349 15.9933 144.023 16.2067 144.543 16.42C145.063 16.62 145.516 16.9533 145.903 17.42C146.303 17.8733 146.509 18.4867 146.523 19.26C146.523 19.9133 146.336 20.5 145.963 21.02C145.603 21.5267 145.076 21.9267 144.383 22.22C143.703 22.5133 142.909 22.66 142.003 22.66ZM153.155 22.66C152.182 22.66 151.315 22.4933 150.555 22.16C149.795 21.8267 149.195 21.3733 148.755 20.8C148.315 20.2133 148.068 19.56 148.015 18.84H151.395C151.435 19.2267 151.615 19.54 151.935 19.78C152.255 20.02 152.648 20.14 153.115 20.14C153.542 20.14 153.868 20.06 154.095 19.9C154.335 19.7267 154.455 19.5067 154.455 19.24C154.455 18.92 154.288 18.6867 153.955 18.54C153.622 18.38 153.082 18.2067 152.335 18.02C151.535 17.8333 150.868 17.64 150.335 17.44C149.802 17.2267 149.342 16.9 148.955 16.46C148.568 16.0067 148.375 15.4 148.375 14.64C148.375 14 148.548 13.42 148.895 12.9C149.255 12.3667 149.775 11.9467 150.455 11.64C151.148 11.3333 151.968 11.18 152.915 11.18C154.315 11.18 155.415 11.5267 156.215 12.22C157.028 12.9133 157.495 13.8333 157.615 14.98H154.455C154.402 14.5933 154.228 14.2867 153.935 14.06C153.655 13.8333 153.282 13.72 152.815 13.72C152.415 13.72 152.108 13.8 151.895 13.96C151.682 14.1067 151.575 14.3133 151.575 14.58C151.575 14.9 151.742 15.14 152.075 15.3C152.422 15.46 152.955 15.62 153.675 15.78C154.502 15.9933 155.175 16.2067 155.695 16.42C156.215 16.62 156.668 16.9533 157.055 17.42C157.455 17.8733 157.662 18.4867 157.675 19.26C157.675 19.9133 157.488 20.5 157.115 21.02C156.755 21.5267 156.228 21.9267 155.535 22.22C154.855 22.5133 154.062 22.66 153.155 22.66ZM161.487 10.18C160.887 10.18 160.394 10.0067 160.007 9.66C159.634 9.3 159.447 8.86 159.447 8.34C159.447 7.80667 159.634 7.36667 160.007 7.02C160.394 6.66 160.887 6.48 161.487 6.48C162.074 6.48 162.554 6.66 162.927 7.02C163.314 7.36667 163.507 7.80667 163.507 8.34C163.507 8.86 163.314 9.3 162.927 9.66C162.554 10.0067 162.074 10.18 161.487 10.18ZM163.187 11.34V22.5H159.767V11.34H163.187ZM170.686 19.3L173.106 11.34H176.746L172.786 22.5H168.566L164.606 11.34H168.266L170.686 19.3ZM188.705 16.74C188.705 17.06 188.685 17.3933 188.645 17.74H180.905C180.959 18.4333 181.179 18.9667 181.565 19.34C181.965 19.7 182.452 19.88 183.025 19.88C183.879 19.88 184.472 19.52 184.805 18.8H188.445C188.259 19.5333 187.919 20.1933 187.425 20.78C186.945 21.3667 186.339 21.8267 185.605 22.16C184.872 22.4933 184.052 22.66 183.145 22.66C182.052 22.66 181.079 22.4267 180.225 21.96C179.372 21.4933 178.705 20.8267 178.225 19.96C177.745 19.0933 177.505 18.08 177.505 16.92C177.505 15.76 177.739 14.7467 178.205 13.88C178.685 13.0133 179.352 12.3467 180.205 11.88C181.059 11.4133 182.039 11.18 183.145 11.18C184.225 11.18 185.185 11.4067 186.025 11.86C186.865 12.3133 187.519 12.96 187.985 13.8C188.465 14.64 188.705 15.62 188.705 16.74ZM185.205 15.84C185.205 15.2533 185.005 14.7867 184.605 14.44C184.205 14.0933 183.705 13.92 183.105 13.92C182.532 13.92 182.045 14.0867 181.645 14.42C181.259 14.7533 181.019 15.2267 180.925 15.84H185.205ZM199.828 22.64C198.801 22.64 197.881 22.4733 197.068 22.14C196.254 21.8067 195.601 21.3133 195.108 20.66C194.628 20.0067 194.374 19.22 194.348 18.3H197.988C198.041 18.82 198.221 19.22 198.528 19.5C198.834 19.7667 199.234 19.9 199.728 19.9C200.234 19.9 200.634 19.7867 200.928 19.56C201.221 19.32 201.368 18.9933 201.368 18.58C201.368 18.2333 201.248 17.9467 201.008 17.72C200.781 17.4933 200.494 17.3067 200.148 17.16C199.814 17.0133 199.334 16.8467 198.708 16.66C197.801 16.38 197.061 16.1 196.488 15.82C195.914 15.54 195.421 15.1267 195.008 14.58C194.594 14.0333 194.388 13.32 194.388 12.44C194.388 11.1333 194.861 10.1133 195.808 9.38C196.754 8.63333 197.988 8.26 199.508 8.26C201.054 8.26 202.301 8.63333 203.248 9.38C204.194 10.1133 204.701 11.14 204.768 12.46H201.068C201.041 12.0067 200.874 11.6533 200.568 11.4C200.261 11.1333 199.868 11 199.388 11C198.974 11 198.641 11.1133 198.388 11.34C198.134 11.5533 198.008 11.8667 198.008 12.28C198.008 12.7333 198.221 13.0867 198.648 13.34C199.074 13.5933 199.741 13.8667 200.648 14.16C201.554 14.4667 202.288 14.76 202.848 15.04C203.421 15.32 203.914 15.7267 204.328 16.26C204.741 16.7933 204.948 17.48 204.948 18.32C204.948 19.12 204.741 19.8467 204.328 20.5C203.928 21.1533 203.341 21.6733 202.568 22.06C201.794 22.4467 200.881 22.64 199.828 22.64ZM206.373 16.92C206.373 15.76 206.606 14.7467 207.073 13.88C207.553 13.0133 208.213 12.3467 209.053 11.88C209.906 11.4133 210.879 11.18 211.973 11.18C213.373 11.18 214.539 11.5467 215.473 12.28C216.419 13.0133 217.039 14.0467 217.333 15.38H213.693C213.386 14.5267 212.793 14.1 211.913 14.1C211.286 14.1 210.786 14.3467 210.413 14.84C210.039 15.32 209.853 16.0133 209.853 16.92C209.853 17.8267 210.039 18.5267 210.413 19.02C210.786 19.5 211.286 19.74 211.913 19.74C212.793 19.74 213.386 19.3133 213.693 18.46H217.333C217.039 19.7667 216.419 20.7933 215.473 21.54C214.526 22.2867 213.359 22.66 211.973 22.66C210.879 22.66 209.906 22.4267 209.053 21.96C208.213 21.4933 207.553 20.8267 207.073 19.96C206.606 19.0933 206.373 18.08 206.373 16.92ZM226.022 11.22C227.302 11.22 228.329 11.6467 229.102 12.5C229.875 13.34 230.262 14.5 230.262 15.98V22.5H226.862V16.44C226.862 15.6933 226.669 15.1133 226.282 14.7C225.895 14.2867 225.375 14.08 224.722 14.08C224.069 14.08 223.549 14.2867 223.162 14.7C222.775 15.1133 222.582 15.6933 222.582 16.44V22.5H219.162V7.7H222.582V12.84C222.929 12.3467 223.402 11.9533 224.002 11.66C224.602 11.3667 225.275 11.22 226.022 11.22ZM237.718 22.66C236.625 22.66 235.638 22.4267 234.758 21.96C233.892 21.4933 233.205 20.8267 232.698 19.96C232.205 19.0933 231.958 18.08 231.958 16.92C231.958 15.7733 232.212 14.7667 232.718 13.9C233.225 13.02 233.918 12.3467 234.798 11.88C235.678 11.4133 236.665 11.18 237.758 11.18C238.852 11.18 239.838 11.4133 240.718 11.88C241.598 12.3467 242.292 13.02 242.798 13.9C243.305 14.7667 243.558 15.7733 243.558 16.92C243.558 18.0667 243.298 19.08 242.778 19.96C242.272 20.8267 241.572 21.4933 240.678 21.96C239.798 22.4267 238.812 22.66 237.718 22.66ZM237.718 19.7C238.372 19.7 238.925 19.46 239.378 18.98C239.845 18.5 240.078 17.8133 240.078 16.92C240.078 16.0267 239.852 15.34 239.398 14.86C238.958 14.38 238.412 14.14 237.758 14.14C237.092 14.14 236.538 14.38 236.098 14.86C235.658 15.3267 235.438 16.0133 235.438 16.92C235.438 17.8133 235.652 18.5 236.078 18.98C236.518 19.46 237.065 19.7 237.718 19.7ZM250.453 22.66C249.359 22.66 248.373 22.4267 247.493 21.96C246.626 21.4933 245.939 20.8267 245.433 19.96C244.939 19.0933 244.693 18.08 244.693 16.92C244.693 15.7733 244.946 14.7667 245.453 13.9C245.959 13.02 246.653 12.3467 247.533 11.88C248.413 11.4133 249.399 11.18 250.493 11.18C251.586 11.18 252.573 11.4133 253.453 11.88C254.333 12.3467 255.026 13.02 255.533 13.9C256.039 14.7667 256.293 15.7733 256.293 16.92C256.293 18.0667 256.033 19.08 255.513 19.96C255.006 20.8267 254.306 21.4933 253.413 21.96C252.533 22.4267 251.546 22.66 250.453 22.66ZM250.453 19.7C251.106 19.7 251.659 19.46 252.113 18.98C252.579 18.5 252.813 17.8133 252.813 16.92C252.813 16.0267 252.586 15.34 252.133 14.86C251.693 14.38 251.146 14.14 250.493 14.14C249.826 14.14 249.273 14.38 248.833 14.86C248.393 15.3267 248.173 16.0133 248.173 16.92C248.173 17.8133 248.386 18.5 248.813 18.98C249.253 19.46 249.799 19.7 250.453 19.7ZM261.527 7.7V22.5H258.107V7.7H261.527Z" fill="#313131"/>
<path d="M75.602 34.598C75.602 35.41 75.322 36.0867 74.762 36.628C74.2113 37.16 73.3667 37.426 72.228 37.426H70.352V41.5H69.078V31.742H72.228C73.3293 31.742 74.1647 32.008 74.734 32.54C75.3127 33.072 75.602 33.758 75.602 34.598ZM72.228 36.376C72.9373 36.376 73.46 36.222 73.796 35.914C74.132 35.606 74.3 35.1673 74.3 34.598C74.3 33.394 73.6093 32.792 72.228 32.792H70.352V36.376H72.228ZM84.1854 37.37C84.1854 37.6127 84.1714 37.8693 84.1434 38.14H78.0114C78.0581 38.896 78.3148 39.4887 78.7814 39.918C79.2574 40.338 79.8314 40.548 80.5034 40.548C81.0541 40.548 81.5114 40.422 81.8754 40.17C82.2488 39.9087 82.5101 39.5633 82.6594 39.134H84.0314C83.8261 39.8713 83.4154 40.4733 82.7994 40.94C82.1834 41.3973 81.4181 41.626 80.5034 41.626C79.7754 41.626 79.1221 41.4627 78.5434 41.136C77.9741 40.8093 77.5261 40.3473 77.1994 39.75C76.8728 39.1433 76.7094 38.4433 76.7094 37.65C76.7094 36.8567 76.8681 36.1613 77.1854 35.564C77.5028 34.9667 77.9461 34.5093 78.5154 34.192C79.0941 33.8653 79.7568 33.702 80.5034 33.702C81.2314 33.702 81.8754 33.8607 82.4354 34.178C82.9954 34.4953 83.4248 34.934 83.7234 35.494C84.0314 36.0447 84.1854 36.67 84.1854 37.37ZM82.8694 37.104C82.8694 36.6187 82.7621 36.2033 82.5474 35.858C82.3328 35.5033 82.0388 35.2373 81.6654 35.06C81.3014 34.8733 80.8954 34.78 80.4474 34.78C79.8034 34.78 79.2528 34.9853 78.7954 35.396C78.3474 35.8067 78.0908 36.376 78.0254 37.104H82.8694ZM89.6051 33.688C90.5384 33.688 91.2944 33.9727 91.8731 34.542C92.4517 35.102 92.7411 35.914 92.7411 36.978V41.5H91.4811V37.16C91.4811 36.3947 91.2897 35.8113 90.9071 35.41C90.5244 34.9993 90.0017 34.794 89.3391 34.794C88.6671 34.794 88.1304 35.004 87.7291 35.424C87.3371 35.844 87.1411 36.4553 87.1411 37.258V41.5H85.8671V33.828H87.1411V34.92C87.3931 34.528 87.7337 34.2247 88.1631 34.01C88.6017 33.7953 89.0824 33.688 89.6051 33.688ZM98.5601 33.688C99.4935 33.688 100.249 33.9727 100.828 34.542C101.407 35.102 101.696 35.914 101.696 36.978V41.5H100.436V37.16C100.436 36.3947 100.245 35.8113 99.8621 35.41C99.4795 34.9993 98.9568 34.794 98.2941 34.794C97.6221 34.794 97.0855 35.004 96.6841 35.424C96.2921 35.844 96.0961 36.4553 96.0961 37.258V41.5H94.8221V33.828H96.0961V34.92C96.3481 34.528 96.6888 34.2247 97.1181 34.01C97.5568 33.7953 98.0375 33.688 98.5601 33.688ZM106.493 41.626C105.905 41.626 105.378 41.528 104.911 41.332C104.445 41.1267 104.076 40.8467 103.805 40.492C103.535 40.128 103.385 39.7127 103.357 39.246H104.673C104.711 39.6287 104.888 39.9413 105.205 40.184C105.532 40.4267 105.957 40.548 106.479 40.548C106.965 40.548 107.347 40.4407 107.627 40.226C107.907 40.0113 108.047 39.7407 108.047 39.414C108.047 39.078 107.898 38.8307 107.599 38.672C107.301 38.504 106.839 38.3407 106.213 38.182C105.644 38.0327 105.177 37.8833 104.813 37.734C104.459 37.5753 104.151 37.3467 103.889 37.048C103.637 36.74 103.511 36.3387 103.511 35.844C103.511 35.452 103.628 35.0927 103.861 34.766C104.095 34.4393 104.426 34.1827 104.855 33.996C105.285 33.8 105.775 33.702 106.325 33.702C107.175 33.702 107.861 33.9167 108.383 34.346C108.906 34.7753 109.186 35.3633 109.223 36.11H107.949C107.921 35.7087 107.758 35.3867 107.459 35.144C107.17 34.9013 106.778 34.78 106.283 34.78C105.826 34.78 105.462 34.878 105.191 35.074C104.921 35.27 104.785 35.5267 104.785 35.844C104.785 36.096 104.865 36.306 105.023 36.474C105.191 36.6327 105.397 36.7633 105.639 36.866C105.891 36.9593 106.237 37.0667 106.675 37.188C107.226 37.3373 107.674 37.4867 108.019 37.636C108.365 37.776 108.659 37.9907 108.901 38.28C109.153 38.5693 109.284 38.9473 109.293 39.414C109.293 39.834 109.177 40.212 108.943 40.548C108.71 40.884 108.379 41.15 107.949 41.346C107.529 41.5327 107.044 41.626 106.493 41.626ZM117.7 33.828L113.08 45.112H111.764L113.276 41.416L110.182 33.828H111.596L114.004 40.044L116.384 33.828H117.7ZM120.254 31.14V41.5H118.98V31.14H120.254ZM125.282 40.324L127.662 33.828H129.02L126.01 41.5H124.526L121.516 33.828H122.888L125.282 40.324ZM129.797 37.636C129.797 36.852 129.956 36.166 130.273 35.578C130.591 34.9807 131.025 34.5187 131.575 34.192C132.135 33.8653 132.756 33.702 133.437 33.702C134.109 33.702 134.693 33.8467 135.187 34.136C135.682 34.4253 136.051 34.7893 136.293 35.228V33.828H137.581V41.5H136.293V40.072C136.041 40.52 135.663 40.8933 135.159 41.192C134.665 41.4813 134.086 41.626 133.423 41.626C132.742 41.626 132.126 41.458 131.575 41.122C131.025 40.786 130.591 40.3147 130.273 39.708C129.956 39.1013 129.797 38.4107 129.797 37.636ZM136.293 37.65C136.293 37.0713 136.177 36.5673 135.943 36.138C135.71 35.7087 135.393 35.382 134.991 35.158C134.599 34.9247 134.165 34.808 133.689 34.808C133.213 34.808 132.779 34.92 132.387 35.144C131.995 35.368 131.683 35.6947 131.449 36.124C131.216 36.5533 131.099 37.0573 131.099 37.636C131.099 38.224 131.216 38.7373 131.449 39.176C131.683 39.6053 131.995 39.9367 132.387 40.17C132.779 40.394 133.213 40.506 133.689 40.506C134.165 40.506 134.599 40.394 134.991 40.17C135.393 39.9367 135.71 39.6053 135.943 39.176C136.177 38.7373 136.293 38.2287 136.293 37.65ZM143.472 33.688C144.406 33.688 145.162 33.9727 145.74 34.542C146.319 35.102 146.608 35.914 146.608 36.978V41.5H145.348V37.16C145.348 36.3947 145.157 35.8113 144.774 35.41C144.392 34.9993 143.869 34.794 143.206 34.794C142.534 34.794 141.998 35.004 141.596 35.424C141.204 35.844 141.008 36.4553 141.008 37.258V41.5H139.734V33.828H141.008V34.92C141.26 34.528 141.601 34.2247 142.03 34.01C142.469 33.7953 142.95 33.688 143.472 33.688ZM149.347 32.582C149.105 32.582 148.899 32.498 148.731 32.33C148.563 32.162 148.479 31.9567 148.479 31.714C148.479 31.4713 148.563 31.266 148.731 31.098C148.899 30.93 149.105 30.846 149.347 30.846C149.581 30.846 149.777 30.93 149.935 31.098C150.103 31.266 150.187 31.4713 150.187 31.714C150.187 31.9567 150.103 32.162 149.935 32.33C149.777 32.498 149.581 32.582 149.347 32.582ZM149.963 33.828V41.5H148.689V33.828H149.963ZM151.659 37.636C151.659 36.852 151.817 36.166 152.135 35.578C152.452 34.9807 152.886 34.5187 153.437 34.192C153.997 33.8653 154.617 33.702 155.299 33.702C155.971 33.702 156.554 33.8467 157.049 34.136C157.543 34.4253 157.912 34.7893 158.155 35.228V33.828H159.443V41.5H158.155V40.072C157.903 40.52 157.525 40.8933 157.021 41.192C156.526 41.4813 155.947 41.626 155.285 41.626C154.603 41.626 153.987 41.458 153.437 41.122C152.886 40.786 152.452 40.3147 152.135 39.708C151.817 39.1013 151.659 38.4107 151.659 37.636ZM158.155 37.65C158.155 37.0713 158.038 36.5673 157.805 36.138C157.571 35.7087 157.254 35.382 156.853 35.158C156.461 34.9247 156.027 34.808 155.551 34.808C155.075 34.808 154.641 34.92 154.249 35.144C153.857 35.368 153.544 35.6947 153.311 36.124C153.077 36.5533 152.961 37.0573 152.961 37.636C152.961 38.224 153.077 38.7373 153.311 39.176C153.544 39.6053 153.857 39.9367 154.249 40.17C154.641 40.394 155.075 40.506 155.551 40.506C156.027 40.506 156.461 40.394 156.853 40.17C157.254 39.9367 157.571 39.6053 157.805 39.176C158.038 38.7373 158.155 38.2287 158.155 37.65ZM162.912 39.736L161.344 43.502H160.49L161.512 39.736H162.912ZM174.627 34.598C174.627 35.41 174.347 36.0867 173.787 36.628C173.237 37.16 172.392 37.426 171.253 37.426H169.377V41.5H168.103V31.742H171.253C172.355 31.742 173.19 32.008 173.759 32.54C174.338 33.072 174.627 33.758 174.627 34.598ZM171.253 36.376C171.963 36.376 172.485 36.222 172.821 35.914C173.157 35.606 173.325 35.1673 173.325 34.598C173.325 33.394 172.635 32.792 171.253 32.792H169.377V36.376H171.253ZM180.019 33.688C180.597 33.688 181.12 33.814 181.587 34.066C182.053 34.3087 182.417 34.6773 182.679 35.172C182.949 35.6667 183.085 36.2687 183.085 36.978V41.5H181.825V37.16C181.825 36.3947 181.633 35.8113 181.251 35.41C180.868 34.9993 180.345 34.794 179.683 34.794C179.011 34.794 178.474 35.004 178.073 35.424C177.681 35.844 177.485 36.4553 177.485 37.258V41.5H176.211V31.14H177.485V34.92C177.737 34.528 178.082 34.2247 178.521 34.01C178.969 33.7953 179.468 33.688 180.019 33.688ZM185.824 32.582C185.581 32.582 185.376 32.498 185.208 32.33C185.04 32.162 184.956 31.9567 184.956 31.714C184.956 31.4713 185.04 31.266 185.208 31.098C185.376 30.93 185.581 30.846 185.824 30.846C186.057 30.846 186.253 30.93 186.412 31.098C186.58 31.266 186.664 31.4713 186.664 31.714C186.664 31.9567 186.58 32.162 186.412 32.33C186.253 32.498 186.057 32.582 185.824 32.582ZM186.44 33.828V41.5H185.166V33.828H186.44ZM189.885 31.14V41.5H188.611V31.14H189.885ZM191.581 37.636C191.581 36.852 191.739 36.166 192.057 35.578C192.374 34.9807 192.808 34.5187 193.359 34.192C193.919 33.8653 194.539 33.702 195.221 33.702C195.893 33.702 196.476 33.8467 196.971 34.136C197.465 34.4253 197.834 34.7893 198.077 35.228V33.828H199.365V41.5H198.077V40.072C197.825 40.52 197.447 40.8933 196.943 41.192C196.448 41.4813 195.869 41.626 195.207 41.626C194.525 41.626 193.909 41.458 193.359 41.122C192.808 40.786 192.374 40.3147 192.057 39.708C191.739 39.1013 191.581 38.4107 191.581 37.636ZM198.077 37.65C198.077 37.0713 197.96 36.5673 197.727 36.138C197.493 35.7087 197.176 35.382 196.775 35.158C196.383 34.9247 195.949 34.808 195.473 34.808C194.997 34.808 194.563 34.92 194.171 35.144C193.779 35.368 193.466 35.6947 193.233 36.124C192.999 36.5533 192.883 37.0573 192.883 37.636C192.883 38.224 192.999 38.7373 193.233 39.176C193.466 39.6053 193.779 39.9367 194.171 40.17C194.563 40.394 194.997 40.506 195.473 40.506C195.949 40.506 196.383 40.394 196.775 40.17C197.176 39.9367 197.493 39.6053 197.727 39.176C197.96 38.7373 198.077 38.2287 198.077 37.65ZM201.041 37.636C201.041 36.852 201.2 36.166 201.517 35.578C201.835 34.9807 202.269 34.5187 202.819 34.192C203.379 33.8653 204.005 33.702 204.695 33.702C205.293 33.702 205.848 33.842 206.361 34.122C206.875 34.3927 207.267 34.752 207.537 35.2V31.14H208.825V41.5H207.537V40.058C207.285 40.5153 206.912 40.8933 206.417 41.192C205.923 41.4813 205.344 41.626 204.681 41.626C204 41.626 203.379 41.458 202.819 41.122C202.269 40.786 201.835 40.3147 201.517 39.708C201.2 39.1013 201.041 38.4107 201.041 37.636ZM207.537 37.65C207.537 37.0713 207.421 36.5673 207.187 36.138C206.954 35.7087 206.637 35.382 206.235 35.158C205.843 34.9247 205.409 34.808 204.933 34.808C204.457 34.808 204.023 34.92 203.631 35.144C203.239 35.368 202.927 35.6947 202.693 36.124C202.46 36.5533 202.343 37.0573 202.343 37.636C202.343 38.224 202.46 38.7373 202.693 39.176C202.927 39.6053 203.239 39.9367 203.631 40.17C204.023 40.394 204.457 40.506 204.933 40.506C205.409 40.506 205.843 40.394 206.235 40.17C206.637 39.9367 206.954 39.6053 207.187 39.176C207.421 38.7373 207.537 38.2287 207.537 37.65ZM217.978 37.37C217.978 37.6127 217.964 37.8693 217.936 38.14H211.804C211.851 38.896 212.108 39.4887 212.574 39.918C213.05 40.338 213.624 40.548 214.296 40.548C214.847 40.548 215.304 40.422 215.668 40.17C216.042 39.9087 216.303 39.5633 216.452 39.134H217.824C217.619 39.8713 217.208 40.4733 216.592 40.94C215.976 41.3973 215.211 41.626 214.296 41.626C213.568 41.626 212.915 41.4627 212.336 41.136C211.767 40.8093 211.319 40.3473 210.992 39.75C210.666 39.1433 210.502 38.4433 210.502 37.65C210.502 36.8567 210.661 36.1613 210.978 35.564C211.296 34.9667 211.739 34.5093 212.308 34.192C212.887 33.8653 213.55 33.702 214.296 33.702C215.024 33.702 215.668 33.8607 216.228 34.178C216.788 34.4953 217.218 34.934 217.516 35.494C217.824 36.0447 217.978 36.67 217.978 37.37ZM216.662 37.104C216.662 36.6187 216.555 36.2033 216.34 35.858C216.126 35.5033 215.832 35.2373 215.458 35.06C215.094 34.8733 214.688 34.78 214.24 34.78C213.596 34.78 213.046 34.9853 212.588 35.396C212.14 35.8067 211.884 36.376 211.818 37.104H216.662ZM220.934 31.14V41.5H219.66V31.14H220.934ZM224.379 35.242C224.631 34.8033 225.005 34.4393 225.499 34.15C226.003 33.8513 226.587 33.702 227.249 33.702C227.931 33.702 228.547 33.8653 229.097 34.192C229.657 34.5187 230.096 34.9807 230.413 35.578C230.731 36.166 230.889 36.852 230.889 37.636C230.889 38.4107 230.731 39.1013 230.413 39.708C230.096 40.3147 229.657 40.786 229.097 41.122C228.547 41.458 227.931 41.626 227.249 41.626C226.596 41.626 226.017 41.4813 225.513 41.192C225.019 40.8933 224.641 40.5247 224.379 40.086V45.14H223.105V33.828H224.379V35.242ZM229.587 37.636C229.587 37.0573 229.471 36.5533 229.237 36.124C229.004 35.6947 228.687 35.368 228.285 35.144C227.893 34.92 227.459 34.808 226.983 34.808C226.517 34.808 226.083 34.9247 225.681 35.158C225.289 35.382 224.972 35.7133 224.729 36.152C224.496 36.5813 224.379 37.0807 224.379 37.65C224.379 38.2287 224.496 38.7373 224.729 39.176C224.972 39.6053 225.289 39.9367 225.681 40.17C226.083 40.394 226.517 40.506 226.983 40.506C227.459 40.506 227.893 40.394 228.285 40.17C228.687 39.9367 229.004 39.6053 229.237 39.176C229.471 38.7373 229.587 38.224 229.587 37.636ZM236.374 33.688C236.953 33.688 237.476 33.814 237.942 34.066C238.409 34.3087 238.773 34.6773 239.034 35.172C239.305 35.6667 239.44 36.2687 239.44 36.978V41.5H238.18V37.16C238.18 36.3947 237.989 35.8113 237.606 35.41C237.224 34.9993 236.701 34.794 236.038 34.794C235.366 34.794 234.83 35.004 234.428 35.424C234.036 35.844 233.84 36.4553 233.84 37.258V41.5H232.566V31.14H233.84V34.92C234.092 34.528 234.438 34.2247 234.876 34.01C235.324 33.7953 235.824 33.688 236.374 33.688ZM242.179 32.582C241.937 32.582 241.731 32.498 241.563 32.33C241.395 32.162 241.311 31.9567 241.311 31.714C241.311 31.4713 241.395 31.266 241.563 31.098C241.731 30.93 241.937 30.846 242.179 30.846C242.413 30.846 242.609 30.93 242.767 31.098C242.935 31.266 243.019 31.4713 243.019 31.714C243.019 31.9567 242.935 32.162 242.767 32.33C242.609 32.498 242.413 32.582 242.179 32.582ZM242.795 33.828V41.5H241.521V33.828H242.795ZM244.491 37.636C244.491 36.852 244.649 36.166 244.967 35.578C245.284 34.9807 245.718 34.5187 246.269 34.192C246.829 33.8653 247.449 33.702 248.131 33.702C248.803 33.702 249.386 33.8467 249.881 34.136C250.375 34.4253 250.744 34.7893 250.987 35.228V33.828H252.275V41.5H250.987V40.072C250.735 40.52 250.357 40.8933 249.853 41.192C249.358 41.4813 248.779 41.626 248.117 41.626C247.435 41.626 246.819 41.458 246.269 41.122C245.718 40.786 245.284 40.3147 244.967 39.708C244.649 39.1013 244.491 38.4107 244.491 37.636ZM250.987 37.65C250.987 37.0713 250.87 36.5673 250.637 36.138C250.403 35.7087 250.086 35.382 249.685 35.158C249.293 34.9247 248.859 34.808 248.383 34.808C247.907 34.808 247.473 34.92 247.081 35.144C246.689 35.368 246.376 35.6947 246.143 36.124C245.909 36.5533 245.793 37.0573 245.793 37.636C245.793 38.224 245.909 38.7373 246.143 39.176C246.376 39.6053 246.689 39.9367 247.081 40.17C247.473 40.394 247.907 40.506 248.383 40.506C248.859 40.506 249.293 40.394 249.685 40.17C250.086 39.9367 250.403 39.6053 250.637 39.176C250.87 38.7373 250.987 38.2287 250.987 37.65Z" fill="#313131" fill-opacity="0.5"/>
</svg>
