<svg width="16" height="16" viewBox="0 0 16 16" fill="none" xmlns="http://www.w3.org/2000/svg">
<path d="M14 9.5C14.2761 9.5 14.5 9.72387 14.5 10V10.0361C14.5 10.9477 14.4995 11.6828 14.4219 12.2607C14.3412 12.8608 14.1688 13.3663 13.7676 13.7676C13.3663 14.1689 12.8608 14.3412 12.2607 14.4219C11.6828 14.4995 10.9477 14.5 10.0361 14.5H5.96387C5.05233 14.5 4.31718 14.4995 3.73926 14.4219C3.13919 14.3412 2.6337 14.1689 2.23242 13.7676C1.83114 13.3663 1.65881 12.8608 1.57813 12.2607C1.50047 11.6828 1.49999 10.9477 1.5 10.0361V10C1.5 9.72387 1.72386 9.5 2 9.5C2.27615 9.5 2.5 9.72387 2.5 10C2.5 10.9569 2.50066 11.6243 2.56836 12.1279C2.63413 12.6171 2.75495 12.876 2.93945 13.0605C3.12396 13.2451 3.38289 13.3658 3.87207 13.4316C4.37563 13.4993 5.04309 13.5 6 13.5H10C10.9569 13.5 11.6243 13.4993 12.1279 13.4316C12.6171 13.3658 12.876 13.2451 13.0605 13.0605C13.2451 12.876 13.3658 12.6171 13.4316 12.1279C13.4993 11.6243 13.5 10.9569 13.5 10C13.5 9.72387 13.7239 9.5 14 9.5ZM8 1.5C8.27613 1.5 8.5 1.72386 8.5 2V9.37891L10.2979 7.41309C10.4841 7.20934 10.8001 7.19468 11.0039 7.38086C11.2075 7.56704 11.222 7.8831 11.0361 8.08691L8.36914 11.0039C8.27441 11.1075 8.1404 11.167 8 11.167C7.8596 11.167 7.72559 11.1075 7.63086 11.0039L4.96387 8.08691C4.77801 7.8831 4.79246 7.56704 4.99609 7.38086C5.19991 7.19467 5.51586 7.20934 5.70215 7.41309L7.5 9.37891V2C7.5 1.72386 7.72387 1.5 8 1.5Z" fill="#2696DB"/>
</svg>
