<svg width="16" height="16" viewBox="0 0 16 16" fill="none" xmlns="http://www.w3.org/2000/svg">
<path fill-rule="evenodd" clip-rule="evenodd" d="M2.16663 8C2.16663 7.72387 2.39049 7.5 2.66663 7.5L12.1262 7.5L8.97976 4.35354C8.78449 4.15827 8.78449 3.84173 8.97976 3.64647C9.17503 3.4512 9.49156 3.4512 9.68683 3.64647L13.6868 7.64647C13.7806 7.7402 13.8333 7.8674 13.8333 8C13.8333 8.1326 13.7806 8.2598 13.6868 8.35353L9.68683 12.3536C9.49156 12.5488 9.17503 12.5488 8.97976 12.3536C8.78449 12.1583 8.78449 11.8417 8.97976 11.6464L12.1262 8.5L2.66663 8.5C2.39049 8.5 2.16663 8.27614 2.16663 8Z" fill="white"/>
</svg>
