<svg width="24" height="24" viewBox="0 0 24 24" fill="none" xmlns="http://www.w3.org/2000/svg">
<path fill-rule="evenodd" clip-rule="evenodd" d="M5.00802 4.40715C6.68809 2.72708 9.52275 2.85498 10.6926 4.9511L11.342 6.11321C12.1059 7.48199 11.7805 9.2097 10.6623 10.3417C10.6474 10.3621 10.5686 10.4769 10.5588 10.6777C10.5463 10.9339 10.6366 11.5269 11.5549 12.4452C12.4729 13.3634 13.0659 13.4548 13.3225 13.4423C13.5235 13.4326 13.639 13.3537 13.6594 13.3388C14.7914 12.2206 16.5182 11.8942 17.8869 12.6581L19.05 13.3075C21.1459 14.4774 21.2739 17.313 19.594 18.9931C18.6953 19.8917 17.5 20.6898 16.0959 20.7431C14.015 20.822 10.5596 20.284 7.1379 16.8622C3.71651 13.4407 3.17826 9.98614 3.25704 7.9052C3.31028 6.501 4.10936 5.30581 5.00802 4.40715ZM9.38302 5.68157C8.78392 4.60836 7.17434 4.36192 6.06856 5.4677C5.29322 6.24305 4.78877 7.09906 4.75606 7.96184C4.69033 9.6972 5.11937 12.7226 8.19845 15.8017C11.2778 18.8811 14.3039 19.3099 16.0393 19.2441C16.9019 19.2112 17.7572 18.7068 18.5324 17.9316C19.6382 16.8258 19.3919 15.2161 18.3186 14.6171L17.1555 13.9687C16.4321 13.5651 15.4166 13.7028 14.7033 14.4159C14.6333 14.4859 14.1869 14.9018 13.3957 14.9404C12.5854 14.9798 11.6041 14.6156 10.4943 13.5058C9.38426 12.3957 9.02012 11.4147 9.05977 10.6044C9.09853 9.81286 9.51552 9.36743 9.58516 9.29778C10.2983 8.5845 10.436 7.56801 10.0324 6.84465L9.38302 5.68157ZM13.26 1.87981C13.3263 1.47125 13.7128 1.19376 14.1213 1.25969C14.1466 1.26453 14.2279 1.28046 14.2707 1.28996C14.356 1.30896 14.4758 1.33755 14.6242 1.38078C14.921 1.46723 15.3358 1.60974 15.8332 1.83782C16.8295 2.29457 18.1548 3.09404 19.5305 4.46965C20.9063 5.84545 21.7055 7.17161 22.1623 8.16789C22.3904 8.66541 22.533 9.08014 22.6193 9.37688C22.6626 9.52516 22.6922 9.64414 22.7111 9.72942C22.7206 9.77203 22.7269 9.80667 22.7316 9.83196L22.7375 9.86321C22.8035 10.2719 22.529 10.6739 22.1203 10.7402C21.7126 10.8062 21.3287 10.53 21.2609 10.123C21.2588 10.1118 21.2524 10.083 21.2463 10.0556C21.234 10.0002 21.2127 9.91197 21.1789 9.79582C21.1112 9.56354 20.9941 9.21827 20.799 8.79289C20.4092 7.94258 19.7078 6.76806 18.4699 5.5302C17.2322 4.29243 16.0575 3.59189 15.2072 3.20207C14.7817 3.00699 14.4367 2.88887 14.2043 2.82121C14.0883 2.78743 13.9425 2.75449 13.8869 2.74211C13.4799 2.67429 13.194 2.28753 13.26 1.87981ZM13.4865 5.33C13.6003 4.9318 14.0151 4.70071 14.4133 4.81438L14.4152 4.81536H14.4162L14.4279 4.81828L14.4475 4.82512C14.4625 4.82993 14.4817 4.83574 14.5041 4.84368C14.549 4.8596 14.6082 4.88284 14.6809 4.91399C14.8265 4.97643 15.0254 5.07307 15.2697 5.2177C15.7592 5.50738 16.4281 5.98839 17.2131 6.77336C17.9979 7.55819 18.4792 8.22635 18.7688 8.71575C18.9135 8.96009 19.0101 9.15896 19.0725 9.30461C19.1037 9.37741 19.1259 9.43744 19.1418 9.48235C19.1497 9.50456 19.1566 9.52303 19.1613 9.53801L19.1672 9.55852L19.1691 9.56633L19.1701 9.56926L19.1711 9.57121C19.171 9.57126 19.1641 9.57434 18.4504 9.77825L19.1711 9.57219C19.2849 9.97041 19.0546 10.3861 18.6565 10.4999C18.2616 10.6127 17.8494 10.3861 17.7316 9.99407L17.7287 9.98332C17.7233 9.96823 17.712 9.93845 17.6936 9.89543C17.6565 9.80907 17.5892 9.66777 17.4777 9.47942C17.2547 9.10267 16.8513 8.53374 16.1516 7.83391C15.4517 7.13407 14.8827 6.73068 14.5061 6.50774C14.3178 6.39632 14.1764 6.32991 14.09 6.29289C14.047 6.27445 14.0173 6.26309 14.0022 6.25774L13.9914 6.25383C13.5994 6.13599 13.3738 5.72483 13.4865 5.33Z" fill="#C9C9C9"/>
</svg>
