<svg width="16" height="16" viewBox="0 0 16 16" fill="none" xmlns="http://www.w3.org/2000/svg">
<g clip-path="url(#clip0_357_53949)">
<path d="M10.4535 0.833008C13.0543 0.833008 15.1664 2.93404 15.1664 5.5293C15.1662 8.12438 13.0542 10.2246 10.4535 10.2246C10.2111 10.2246 9.82909 10.197 9.43882 10.1162C9.19713 10.0662 8.92071 9.9898 8.66636 9.86816L8.35777 10.1768L8.35093 10.1826C8.40707 10.2481 8.47442 10.3349 8.53355 10.4453C8.53775 10.4518 8.54231 10.4589 8.54722 10.4668C8.56609 10.4971 8.59043 10.5388 8.61656 10.5898C8.66827 10.6908 8.73083 10.8351 8.77281 11.0107C8.85852 11.3693 8.859 11.8693 8.50914 12.3574L8.50523 12.3623L8.5023 12.3672C8.30123 12.6342 7.92179 12.9585 7.40953 13.0557C7.16186 13.1026 6.90326 13.0924 6.64195 13.0156C6.64723 13.2953 6.57486 13.6094 6.35289 13.9189L6.34996 13.9238L6.34605 13.9287C6.13081 14.2143 5.75613 14.4841 5.30601 14.5703C4.95887 14.6367 4.58303 14.5894 4.22789 14.3857L3.85093 14.7627C3.49071 15.1214 3.06513 15.2056 2.69761 15.1514C2.35492 15.1007 2.06956 14.933 1.89976 14.7881C1.89013 14.7799 1.88042 14.7717 1.87144 14.7627L1.28355 14.1768C0.893735 13.7885 0.785222 13.3416 0.850934 12.9395C0.911541 12.5687 1.11262 12.2728 1.28355 12.1025L6.12047 7.28516C6.08744 7.21096 6.05186 7.12608 6.01695 7.03223C5.8799 6.66357 5.74063 6.14025 5.74058 5.5293C5.74058 2.93417 7.85278 0.83321 10.4535 0.833008ZM10.4535 1.83301C8.40118 1.83321 6.74058 3.49031 6.74058 5.5293C6.74063 5.99108 6.84668 6.39474 6.95445 6.68457C7.00801 6.82848 7.06159 6.94146 7.09996 7.0166C7.11909 7.05412 7.13417 7.08255 7.1439 7.09961C7.1485 7.10756 7.15183 7.11314 7.15367 7.11621L7.15562 7.11914C7.27895 7.31582 7.24972 7.57153 7.08531 7.73535L1.98863 12.8105C1.931 12.868 1.85766 12.982 1.83824 13.1006C1.82396 13.1879 1.82988 13.3106 1.98863 13.4688L2.56089 14.0371C2.62255 14.0858 2.73141 14.1455 2.84312 14.1621C2.93762 14.176 3.03495 14.1632 3.14488 14.0537L3.83043 13.3711C4.02552 13.1768 4.34139 13.1768 4.53648 13.3711C4.76196 13.5955 4.96232 13.6178 5.11851 13.5879C5.30226 13.5526 5.46435 13.4345 5.54429 13.3311C5.66591 13.1583 5.65814 12.9971 5.60777 12.8467C5.58104 12.7669 5.54307 12.6969 5.51109 12.6465C5.49559 12.6221 5.48196 12.6043 5.47398 12.5938L5.41246 12.5059C5.30483 12.3139 5.33489 12.0681 5.49644 11.9072L5.69175 11.7119C5.88681 11.5176 6.20271 11.5177 6.39781 11.7119C6.77139 12.0839 7.05127 12.1048 7.223 12.0723C7.42808 12.0333 7.60571 11.8926 7.69957 11.7705C7.83583 11.5775 7.83662 11.3955 7.80015 11.2432C7.78095 11.1628 7.75071 11.0943 7.72593 11.0459C7.71373 11.0222 7.70361 11.0049 7.69761 10.9951L7.69371 10.9883L7.6732 10.96L7.65562 10.9248C7.63702 10.8877 7.61127 10.854 7.5648 10.8027L7.55211 10.7891C7.51284 10.7472 7.41832 10.6461 7.35972 10.541C7.26104 10.3639 7.23339 10.1505 7.31968 9.92871C7.38797 9.75357 7.51729 9.60167 7.65172 9.46777L8.23961 8.88281C8.42219 8.70097 8.71315 8.68721 8.91148 8.85156C9.05001 8.96656 9.31068 9.0691 9.64195 9.1377C9.95819 9.20312 10.2714 9.22458 10.4535 9.22461C12.5058 9.22461 14.1662 7.56825 14.1664 5.5293C14.1664 3.49018 12.5059 1.83301 10.4535 1.83301ZM10.4544 3.56543C11.5401 3.56568 12.4232 4.44307 12.4232 5.5293C12.4231 6.6154 11.54 7.49194 10.4544 7.49219C9.36867 7.49219 8.48487 6.61556 8.48472 5.5293C8.48472 4.44291 9.36858 3.56543 10.4544 3.56543ZM10.4544 4.56543C9.91705 4.56543 9.48472 4.99905 9.48472 5.5293C9.48487 6.05942 9.91714 6.49219 10.4544 6.49219C10.9915 6.49194 11.4231 6.05926 11.4232 5.5293C11.4232 4.9992 10.9916 4.56568 10.4544 4.56543Z" fill="white" fill-opacity="0.5"/>
</g>
<defs>
<clipPath id="clip0_357_53949">
<rect width="16" height="16" fill="white"/>
</clipPath>
</defs>
</svg>
