<svg width="24" height="24" viewBox="0 0 24 24" fill="none" xmlns="http://www.w3.org/2000/svg">
<path fill-rule="evenodd" clip-rule="evenodd" d="M9.46484 2.82023C11.0875 2.05966 12.9135 2.05953 14.5361 2.82023L21.2266 5.95792C22.2788 6.45123 22.7499 7.52217 22.75 8.49992C22.75 9.47772 22.2788 10.5495 21.2266 11.0429L19.75 11.7353V16.6259C19.7499 17.8788 19.1211 19.0883 17.9775 19.7216C17.226 20.1378 16.2386 20.6392 15.1992 21.038C14.1719 21.4321 13.0339 21.7499 12 21.7499C10.9661 21.7499 9.82812 21.4321 8.80078 21.038C7.76147 20.6392 6.77406 20.1378 6.02246 19.7216C4.87885 19.0883 4.25013 17.8788 4.25 16.6259V11.4999C4.25001 11.4587 4.25336 11.4182 4.25977 11.3788C4.23625 11.2348 4.25465 11.0815 4.32129 10.9394C4.49722 10.5647 4.9435 10.4034 5.31836 10.579L10.1016 12.8212C11.3208 13.3928 12.6801 13.3928 13.8994 12.8212L20.5898 9.68449C20.993 9.49547 21.25 9.04433 21.25 8.49992C21.2499 7.9556 20.993 7.50434 20.5898 7.31535L13.8994 4.17863C12.6802 3.60703 11.3208 3.60713 10.1016 4.17863L3.41016 7.31535C3.03514 7.49116 2.58895 7.32997 2.41309 6.95499C2.23728 6.57999 2.39847 6.13379 2.77344 5.95792L9.46484 2.82023ZM14.5361 14.1796C12.9135 14.9404 11.0876 14.9403 9.46484 14.1796L5.75 12.4384V16.6259C5.75013 17.3887 6.12919 18.0667 6.74902 18.4101C7.4656 18.8068 8.38741 19.2726 9.33887 19.6376C10.3026 20.0073 11.238 20.2499 12 20.2499C12.762 20.2499 13.6974 20.0073 14.6611 19.6376C15.6125 19.2726 16.5344 18.8068 17.251 18.4101C17.8709 18.0667 18.2499 17.3887 18.25 16.6259V12.4384L14.5361 14.1796ZM5.7041 7.31046C6.08483 7.14729 6.52629 7.32427 6.68945 7.70499C6.8523 8.0855 6.67622 8.52611 6.2959 8.68937L5.21973 9.15031C4.61696 9.40864 4.21958 9.57988 3.92773 9.74406C3.65185 9.89928 3.53203 10.0155 3.45606 10.1308C3.38013 10.246 3.32108 10.402 3.28711 10.7167C3.25119 11.0496 3.25 11.482 3.25 12.1376V14.9999C3.25 15.4141 2.91422 15.7499 2.5 15.7499C2.08579 15.7499 1.75 15.4141 1.75 14.9999V12.0985C1.74998 11.4923 1.75026 10.9784 1.7959 10.5556C1.84448 10.1056 1.94977 9.6903 2.2041 9.3046C2.45841 8.91904 2.79797 8.65833 3.19238 8.43644C3.56303 8.22794 4.0355 8.02584 4.59277 7.78703L5.7041 7.31046Z" fill="#C9C9C9"/>
</svg>
