<svg width="16" height="16" viewBox="0 0 16 16" fill="none" xmlns="http://www.w3.org/2000/svg">
<path d="M13.3794 13.3667C13.1854 13.5608 12.8708 13.5608 12.6768 13.3667L9.69802 10.3879C9.21204 9.90186 8.4379 9.88781 7.79742 10.1371C7.76227 10.1508 7.72678 10.1641 7.69095 10.1769C7.25762 10.3325 6.80934 10.4103 6.34612 10.4103C5.20668 10.4103 4.24234 10.0158 3.45312 9.22676C2.6639 8.43776 2.26929 7.47365 2.26929 6.33443C2.26929 5.19531 2.66379 4.23087 3.45279 3.44109C4.24179 2.65143 5.2059 2.25659 6.34512 2.25659C7.48423 2.25659 8.44868 2.6512 9.23845 3.44042C10.0281 4.22965 10.423 5.19398 10.423 6.33343C10.423 6.80954 10.3431 7.26426 10.1833 7.69759C10.173 7.72547 10.1625 7.75311 10.1518 7.78052C9.90056 8.42237 9.91647 9.20128 10.4039 9.68866L13.3794 12.6642C13.5734 12.8582 13.5734 13.1727 13.3794 13.3667ZM6.34612 9.41043C7.20512 9.41043 7.93268 9.11231 8.52879 8.51609C9.12501 7.91998 9.42312 7.19243 9.42312 6.33343C9.42312 5.47443 9.12501 4.74687 8.52879 4.15076C7.93268 3.55454 7.20512 3.25643 6.34612 3.25643C5.48712 3.25643 4.75956 3.55454 4.16345 4.15076C3.56723 4.74687 3.26912 5.47443 3.26912 6.33343C3.26912 7.19243 3.56723 7.91998 4.16345 8.51609C4.75956 9.11231 5.48712 9.41043 6.34612 9.41043Z" fill="white" fill-opacity="0.5"/>
</svg>
