<svg width="16" height="16" viewBox="0 0 16 16" fill="none" xmlns="http://www.w3.org/2000/svg">
<path fill-rule="evenodd" clip-rule="evenodd" d="M3.33334 0.833496C3.60948 0.833496 3.83334 1.05736 3.83334 1.3335V2.05693L4.8824 1.84712C6.07786 1.60802 7.31708 1.7218 8.44901 2.17457L8.58474 2.22888C9.52794 2.60615 10.566 2.6766 11.5515 2.43022C12.3719 2.22512 13.1667 2.84563 13.1667 3.69129V8.60263C13.1667 9.26163 12.7182 9.83603 12.0789 9.99583L11.9359 10.0316C10.6543 10.352 9.30421 10.2604 8.07761 9.7697C7.12574 9.38896 6.08376 9.29329 5.07852 9.49436L3.83334 9.74343V14.6668C3.83334 14.943 3.60948 15.1668 3.33334 15.1668C3.0572 15.1668 2.83334 14.943 2.83334 14.6668V1.3335C2.83334 1.05736 3.0572 0.833496 3.33334 0.833496ZM3.83334 8.72356L4.8824 8.51376C6.07786 8.2747 7.31708 8.38849 8.44901 8.84123C9.48041 9.25383 10.6157 9.33083 11.6934 9.06143L11.8363 9.02569C12.0305 8.97716 12.1667 8.80276 12.1667 8.60263V3.69129C12.1667 3.4962 11.9833 3.35305 11.7941 3.40037C10.6046 3.69773 9.35174 3.6127 8.21334 3.15735L8.07761 3.10305C7.12574 2.72232 6.08376 2.62665 5.07852 2.8277L3.83334 3.07673V8.72356Z" fill="#2696DB"/>
</svg>
