<svg width="16" height="16" viewBox="0 0 16 16" fill="none" xmlns="http://www.w3.org/2000/svg">
<path d="M13.333 10.833C13.609 10.833 13.8328 11.057 13.833 11.333C13.833 11.6091 13.6091 11.833 13.333 11.833H2.66699C2.39085 11.833 2.16699 11.6091 2.16699 11.333C2.16717 11.057 2.39096 10.833 2.66699 10.833H13.333ZM13.333 7.5C13.6091 7.5 13.833 7.72387 13.833 8C13.833 8.27613 13.6091 8.5 13.333 8.5H2.66699C2.39085 8.5 2.16699 8.27613 2.16699 8C2.16699 7.72387 2.39085 7.5 2.66699 7.5H13.333ZM13.333 4.16699C13.6091 4.16699 13.833 4.39085 13.833 4.66699C13.8328 4.94298 13.609 5.16699 13.333 5.16699H2.66699C2.39096 5.16699 2.16717 4.94298 2.16699 4.66699C2.16699 4.39085 2.39085 4.16699 2.66699 4.16699H13.333Z" fill="white"/>
</svg>
