<svg width="16" height="16" viewBox="0 0 16 16" fill="none" xmlns="http://www.w3.org/2000/svg">
<path fill-rule="evenodd" clip-rule="evenodd" d="M3.68624 5.84322C2.49504 5.84322 1.52938 6.80886 1.52938 8.00008C1.52938 9.1913 2.49504 10.1569 3.68624 10.1569C4.87744 10.1569 5.8431 9.1913 5.8431 8.00008C5.8431 6.80886 4.87744 5.84322 3.68624 5.84322ZM0.352905 8.00008C0.352905 6.15914 1.84529 4.66675 3.68624 4.66675C5.22184 4.66675 6.51494 5.7051 6.90161 7.11804C7.60616 6.83436 8.39377 6.83436 9.09832 7.11804C9.48498 5.7051 10.7781 4.66675 12.3137 4.66675C14.1546 4.66675 15.647 6.15914 15.647 8.00008C15.647 9.84102 14.1546 11.3334 12.3137 11.3334C10.5992 11.3334 9.18694 10.0389 9.00106 8.37396L8.78914 8.268C8.29236 8.01961 7.70757 8.01961 7.21079 8.268L6.99887 8.37396C6.81298 10.0389 5.40078 11.3334 3.68624 11.3334C1.84529 11.3334 0.352905 9.84102 0.352905 8.00008ZM12.3137 5.84322C11.1225 5.84322 10.1568 6.80886 10.1568 8.00008C10.1568 9.1913 11.1225 10.1569 12.3137 10.1569C13.5049 10.1569 14.4706 9.1913 14.4706 8.00008C14.4706 6.80886 13.5049 5.84322 12.3137 5.84322Z" fill="white" fill-opacity="0.5"/>
</svg>
