<svg width="16" height="16" viewBox="0 0 16 16" fill="none" xmlns="http://www.w3.org/2000/svg">
<g clip-path="url(#clip0_402_22005)">
<path fill-rule="evenodd" clip-rule="evenodd" d="M7.29757 0.833008H8.70251C9.45771 0.832995 10.0749 0.832982 10.5621 0.898488C11.0714 0.966962 11.513 1.11515 11.8654 1.46761C12.2179 1.82007 12.3661 2.26163 12.4346 2.77093C12.4682 3.0214 12.4846 3.3062 12.4926 3.62644C13.198 3.74025 13.7762 3.96429 14.2392 4.4273C14.7381 4.92621 14.9595 5.55884 15.0646 6.34046C15.1667 7.09994 15.1667 8.07034 15.1667 9.29554V9.37074C15.1667 10.5959 15.1667 11.5663 15.0646 12.3258C14.9595 13.1074 14.7381 13.7401 14.2392 14.239C13.7403 14.7379 13.1076 14.9593 12.326 15.0644C11.5666 15.1665 10.5962 15.1665 9.37097 15.1665H6.6291C5.40393 15.1665 4.4335 15.1665 3.67403 15.0644C2.89241 14.9593 2.25978 14.7379 1.76087 14.239C1.26196 13.7401 1.04055 13.1074 0.935468 12.3258C0.833354 11.5663 0.833361 10.5959 0.833374 9.37074V9.29554C0.833361 8.07034 0.833354 7.09994 0.935468 6.34046C1.04055 5.55884 1.26196 4.92621 1.76087 4.4273C2.22388 3.96429 2.80205 3.74025 3.50753 3.62644C3.51548 3.3062 3.53185 3.0214 3.56552 2.77093C3.63399 2.26163 3.78218 1.82007 4.13464 1.46761C4.48711 1.11515 4.92866 0.966962 5.43797 0.898488C5.92521 0.832982 6.54236 0.832995 7.29757 0.833008ZM3.50004 4.64376C3.01271 4.74159 2.70387 4.89851 2.46797 5.13441C2.18583 5.41655 2.01672 5.80297 1.92655 6.4737C1.83443 7.15881 1.83337 8.06194 1.83337 9.33314C1.83337 10.6043 1.83443 11.5075 1.92655 12.1925C2.01672 12.8633 2.18583 13.2497 2.46797 13.5319C2.75011 13.814 3.13655 13.9831 3.80727 14.0733C4.49238 14.1654 5.39549 14.1665 6.66671 14.1665H9.33337C10.6046 14.1665 11.5077 14.1654 12.1928 14.0733C12.8635 13.9831 13.25 13.814 13.5321 13.5319C13.8142 13.2497 13.9834 12.8633 14.0735 12.1925C14.1656 11.5075 14.1667 10.6043 14.1667 9.33314C14.1667 8.06194 14.1656 7.15881 14.0735 6.4737C13.9834 5.80297 13.8142 5.41655 13.5321 5.13441C13.2962 4.89851 12.9874 4.74159 12.5 4.64376V5.41734C12.5 5.4481 12.5 5.47849 12.5001 5.50852C12.5006 6.03255 12.5011 6.44764 12.327 6.81948C12.1528 7.19128 11.8336 7.45667 11.4307 7.79174C11.4076 7.81094 11.3842 7.83034 11.3606 7.85007L10.8558 8.27074C10.2649 8.76314 9.78597 9.16227 9.36324 9.43414C8.92291 9.71734 8.49411 9.89627 8.00004 9.89627C7.50597 9.89627 7.07717 9.71734 6.63683 9.43414C6.21412 9.16227 5.73519 8.76314 5.14429 8.27074L4.63945 7.85007C4.61583 7.83034 4.59247 7.81094 4.56938 7.79174C4.16644 7.45667 3.84728 7.19128 3.67313 6.81948C3.49897 6.44764 3.49941 6.03255 3.49997 5.50851C3.50001 5.47849 3.50004 5.4481 3.50004 5.41734V4.64376ZM5.57121 1.88957C5.1728 1.94313 4.97744 2.03902 4.84175 2.17471C4.70605 2.31041 4.61017 2.50577 4.5566 2.90418C4.5011 3.31697 4.50004 3.86653 4.50004 4.66634V5.41734C4.50004 6.07821 4.51109 6.25091 4.57871 6.39531C4.64635 6.53969 4.77195 6.65874 5.27964 7.08181L5.75939 7.48161C6.38137 7.99994 6.81317 8.35861 7.17777 8.59307C7.53064 8.82007 7.76997 8.89627 8.00004 8.89627C8.23011 8.89627 8.46944 8.82007 8.82231 8.59307C9.18691 8.35861 9.61871 7.99994 10.2407 7.48161L10.7204 7.08181C11.2281 6.65874 11.3537 6.53969 11.4214 6.39531C11.489 6.25091 11.5 6.07821 11.5 5.41734V4.66634C11.5 3.86653 11.499 3.31697 11.4435 2.90418C11.3899 2.50577 11.294 2.31041 11.1583 2.17471C11.0226 2.03902 10.8273 1.94313 10.4288 1.88957C10.0161 1.83407 9.46651 1.83301 8.66671 1.83301H7.33337C6.53357 1.83301 5.98401 1.83407 5.57121 1.88957ZM6.16671 3.99967C6.16671 3.72353 6.39057 3.49967 6.66671 3.49967H9.33337C9.60951 3.49967 9.83337 3.72353 9.83337 3.99967C9.83337 4.27582 9.60951 4.49967 9.33337 4.49967H6.66671C6.39057 4.49967 6.16671 4.27582 6.16671 3.99967ZM6.83337 5.99967C6.83337 5.72353 7.05724 5.49967 7.33337 5.49967H8.66671C8.94284 5.49967 9.16671 5.72353 9.16671 5.99967C9.16671 6.27582 8.94284 6.49967 8.66671 6.49967H7.33337C7.05724 6.49967 6.83337 6.27582 6.83337 5.99967Z" fill="#C9C9C9"/>
</g>
<defs>
<clipPath id="clip0_402_22005">
<rect width="16" height="16" fill="white"/>
</clipPath>
</defs>
</svg>
