<svg width="16" height="16" viewBox="0 0 16 16" fill="none" xmlns="http://www.w3.org/2000/svg">
<path d="M11.2037 14.3332C10.7047 14.3332 10.281 14.1587 9.93269 13.8097C9.58446 13.4607 9.41035 13.0369 9.41035 12.5383C9.41035 12.4717 9.43341 12.3097 9.47952 12.0523L4.73852 9.26134C4.57785 9.428 4.38696 9.55856 4.16585 9.653C3.94474 9.74745 3.70785 9.79467 3.45519 9.79467C2.95841 9.79467 2.53613 9.61945 2.18835 9.269C1.84058 8.91856 1.66669 8.4955 1.66669 7.99984C1.66669 7.50417 1.84058 7.08111 2.18835 6.73067C2.53613 6.38023 2.95841 6.205 3.45519 6.205C3.70785 6.205 3.94474 6.25223 4.16585 6.34667C4.38696 6.44112 4.57785 6.57167 4.73852 6.73834L9.47952 3.95367C9.45308 3.87167 9.43491 3.79134 9.42502 3.71267C9.41524 3.634 9.41035 3.55023 9.41035 3.46134C9.41035 2.96278 9.58496 2.539 9.93419 2.19C10.2835 1.841 10.7077 1.6665 11.2067 1.6665C11.7057 1.6665 12.1293 1.84117 12.4775 2.1905C12.8259 2.53973 13 2.96384 13 3.46284C13 3.96184 12.8255 4.3855 12.4765 4.73384C12.1275 5.08206 11.7037 5.25617 11.2052 5.25617C10.9513 5.25617 10.7152 5.20789 10.4969 5.11134C10.2784 5.01478 10.0889 4.88317 9.92819 4.7165L5.18719 7.5075C5.21363 7.58962 5.2318 7.66995 5.24169 7.7485C5.25146 7.82717 5.25635 7.91095 5.25635 7.99984C5.25635 8.08873 5.25146 8.1725 5.24169 8.25117C5.2318 8.32973 5.21363 8.41006 5.18719 8.49217L9.92819 11.2832C10.0889 11.1165 10.2784 10.9849 10.4969 10.8883C10.7152 10.7918 10.9513 10.7435 11.2052 10.7435C11.7037 10.7435 12.1275 10.9181 12.4765 11.2673C12.8255 11.6167 13 12.0408 13 12.5398C13 13.0388 12.8254 13.4624 12.476 13.8107C12.1268 14.159 11.7027 14.3332 11.2037 14.3332ZM11.2052 13.3332C11.4304 13.3332 11.6192 13.257 11.7715 13.1047C11.9239 12.9523 12 12.7636 12 12.5383C12 12.3131 11.9239 12.1243 11.7715 11.972C11.6192 11.8196 11.4304 11.7433 11.2052 11.7433C10.98 11.7433 10.7912 11.8196 10.6389 11.972C10.4864 12.1243 10.4102 12.3131 10.4102 12.5383C10.4102 12.7636 10.4864 12.9523 10.6389 13.1047C10.7912 13.257 10.98 13.3332 11.2052 13.3332ZM3.45519 8.79467C3.68219 8.79467 3.87246 8.7185 4.02602 8.56617C4.17969 8.41384 4.25652 8.22506 4.25652 7.99984C4.25652 7.77462 4.17969 7.58584 4.02602 7.4335C3.87246 7.28117 3.68219 7.205 3.45519 7.205C3.23174 7.205 3.04446 7.28117 2.89335 7.4335C2.74224 7.58584 2.66669 7.77462 2.66669 7.99984C2.66669 8.22506 2.74224 8.41384 2.89335 8.56617C3.04446 8.7185 3.23174 8.79467 3.45519 8.79467ZM11.2052 4.25634C11.4304 4.25634 11.6192 4.18011 11.7715 4.02767C11.9239 3.87534 12 3.68656 12 3.46134C12 3.23612 11.9239 3.04734 11.7715 2.895C11.6192 2.74267 11.4304 2.6665 11.2052 2.6665C10.98 2.6665 10.7912 2.74267 10.6389 2.895C10.4864 3.04734 10.4102 3.23612 10.4102 3.46134C10.4102 3.68656 10.4864 3.87534 10.6389 4.02767C10.7912 4.18011 10.98 4.25634 11.2052 4.25634Z" fill="#313131" fill-opacity="0.5"/>
</svg>
