<svg width="24" height="24" viewBox="0 0 24 24" fill="none" xmlns="http://www.w3.org/2000/svg">
<path d="M12 2C15.7279 2 18.75 5.02208 18.75 8.75V10.0527C18.9767 10.0687 19.1905 10.0892 19.3916 10.1162C20.2917 10.2372 21.0494 10.4968 21.6514 11.0986C22.2533 11.7006 22.5128 12.4583 22.6338 13.3584C22.7503 14.2254 22.75 15.3278 22.75 16.6953V16.8047C22.75 18.1722 22.7503 19.2746 22.6338 20.1416C22.5128 21.0417 22.2533 21.7995 21.6514 22.4014C21.0494 23.0033 20.2917 23.2628 19.3916 23.3838C18.5246 23.5003 17.4222 23.5 16.0547 23.5H7.94531C6.57782 23.5 5.47534 23.5003 4.6084 23.3838C3.7083 23.2628 2.95055 23.0033 2.34863 22.4014C1.74671 21.7995 1.48723 21.0417 1.36621 20.1416C1.24968 19.2746 1.24998 18.1722 1.25 16.8047V16.6953C1.24998 15.3278 1.24968 14.2254 1.36621 13.3584C1.48723 12.4583 1.74673 11.7006 2.34863 11.0986C2.95055 10.4968 3.70829 10.2372 4.6084 10.1162C4.80947 10.0892 5.02324 10.0687 5.25 10.0527V8.75C5.25 5.02208 8.27208 2 12 2ZM8 11.5C6.56485 11.5 5.5639 11.5021 4.80859 11.6035C4.07482 11.7022 3.68594 11.8824 3.40918 12.1592C3.13249 12.4359 2.95218 12.8242 2.85352 13.5576C2.75196 14.313 2.75 15.3146 2.75 16.75C2.75 18.1854 2.75196 19.187 2.85352 19.9424C2.95218 20.6758 3.13249 21.0641 3.40918 21.3408C3.68594 21.6176 4.07482 21.7978 4.80859 21.8965C5.5639 21.9979 6.56485 22 8 22H16C17.4354 22 18.437 21.998 19.1924 21.8965C19.9258 21.7978 20.3141 21.6176 20.5908 21.3408C20.8676 21.0641 21.0478 20.6758 21.1465 19.9424C21.248 19.187 21.25 18.1854 21.25 16.75C21.25 15.3146 21.248 14.313 21.1465 13.5576C21.0478 12.8242 20.8676 12.4359 20.5908 12.1592C20.3141 11.8824 19.9258 11.7022 19.1924 11.6035C18.437 11.502 17.4354 11.5 16 11.5H8ZM8 15C8.55229 15 9 15.4477 9 16C9 16.5523 8.55229 17 8 17C7.44772 17 7 16.5523 7 16C7 15.4477 7.44772 15 8 15ZM12 15C12.5523 15 13 15.4477 13 16C13 16.5523 12.5523 17 12 17C11.4477 17 11 16.5523 11 16C11 15.4477 11.4477 15 12 15ZM16 15C16.5523 15 17 15.4477 17 16C17 16.5523 16.5523 17 16 17C15.4477 17 15 16.5523 15 16C15 15.4477 15.4477 15 16 15ZM12 3.5C9.10051 3.5 6.75 5.85051 6.75 8.75V10.0039C7.12349 10.0005 7.52184 9.99999 7.94531 10H16.0547C16.4781 9.99999 16.8765 10.0005 17.25 10.0039V8.75C17.25 5.85051 14.8995 3.5 12 3.5Z" fill="#2696DB" fill-opacity="0.5"/>
</svg>
