<svg width="24" height="24" viewBox="0 0 24 24" fill="none" xmlns="http://www.w3.org/2000/svg">
<path d="M7.5848 6.30229C8.35984 6.11942 9.03289 6.43539 9.63851 6.88432C10.2248 7.31904 10.9 7.99434 11.7186 8.81303L15.1864 12.2808C16.0049 13.0993 16.6795 13.7737 17.1141 14.3599C17.5632 14.9657 17.8801 15.6393 17.6971 16.4146C17.514 17.1898 16.9292 17.6498 16.2567 17.9908C15.6057 18.3208 14.7007 18.6228 13.6024 18.9888L8.41195 20.7193C7.0822 21.1625 6.00261 21.5225 5.16585 21.6714C4.3216 21.8215 3.46492 21.8055 2.82894 21.1695C2.19303 20.5334 2.17778 19.6769 2.32796 18.8326C2.47683 17.9958 2.83676 16.9165 3.28011 15.5865L5.0096 10.396C5.37566 9.29776 5.67764 8.39274 6.00765 7.74175C6.3486 7.06918 6.80954 6.48531 7.5848 6.30229ZM6.95394 9.35307C6.79561 9.78345 6.62188 10.3033 6.41292 10.9302L4.72347 15.9986C4.2545 17.4056 3.93178 18.3799 3.80452 19.0953C3.67638 19.8155 3.79574 20.0152 3.88948 20.1089C3.98325 20.2027 4.18268 20.3221 4.90316 20.1939C5.49356 20.0889 6.26077 19.8511 7.30159 19.5074C7.28375 19.4279 7.25931 19.3182 7.2303 19.1841C7.16749 18.8937 7.08272 18.4873 6.99398 18.024C6.8181 17.1058 6.62055 15.9303 6.55843 14.983C6.45583 13.4176 6.65484 11.4584 6.86995 9.92534C6.89766 9.72791 6.92599 9.53653 6.95394 9.35307ZM8.65706 8.25249C8.57207 8.7241 8.46157 9.38395 8.35628 10.1343C8.14366 11.6497 7.96344 13.4816 8.0555 14.8853C8.11124 15.7352 8.29289 16.8347 8.46663 17.7417C8.55267 18.1909 8.6352 18.5851 8.69612 18.8667C8.70911 18.9268 8.72142 18.9816 8.73226 19.0308L11.367 18.1529C11.2978 17.9474 11.2146 17.6827 11.1317 17.3746C10.9327 16.6348 10.7274 15.6173 10.7274 14.5552C10.7274 13.4399 10.9317 12.4221 11.1326 11.69C11.2335 11.3222 11.3349 11.0212 11.4119 10.8101C11.4298 10.761 11.4467 10.7166 11.4617 10.6773L10.702 9.91753C9.82799 9.04354 9.23198 8.44981 8.74593 8.0894C8.72849 8.07648 8.7109 8.06431 8.69417 8.05229C8.68267 8.11452 8.66989 8.18129 8.65706 8.25249ZM12.5789 12.0874C12.4008 12.7369 12.2274 13.6151 12.2274 14.5552C12.2274 15.1736 12.3118 15.7898 12.4246 16.3335C12.4728 16.5655 12.526 16.7848 12.5799 16.9849C12.6543 17.2614 12.729 17.4977 12.7899 17.6783L13.0682 17.5855C14.241 17.1946 15.0391 16.9266 15.5789 16.6529C16.1084 16.3844 16.2062 16.2007 16.2371 16.0699C16.268 15.9389 16.2628 15.7307 15.909 15.2535C15.5486 14.7674 14.9551 14.1705 14.0809 13.2964L12.6444 11.8599C12.623 11.9317 12.6007 12.0078 12.5789 12.0874ZM19.0584 15.313C19.2679 15.1038 19.6078 15.1037 19.8172 15.313C20.0265 15.5225 20.0265 15.8624 19.8172 16.0718C19.6078 16.2813 19.2679 16.2811 19.0584 16.0718C18.849 15.8623 18.849 15.5225 19.0584 15.313ZM19.3358 12.607C20.0686 11.9573 21.1123 11.7927 22.0096 12.1851L22.3006 12.3121C22.6801 12.4781 22.8532 12.9208 22.6873 13.3003C22.5212 13.6795 22.0794 13.8528 21.7 13.6871L21.408 13.5591C21.0466 13.4012 20.6262 13.4674 20.3309 13.729C19.5217 14.4466 18.3437 14.5666 17.4071 14.0259L17.1942 13.9029C16.8355 13.6958 16.7129 13.2371 16.9198 12.8785C17.1269 12.5198 17.5854 12.3969 17.9442 12.604L18.1571 12.7261C18.5347 12.9441 19.0096 12.8962 19.3358 12.607ZM17.1571 10.1568C17.3666 9.94737 17.7064 9.94733 17.9159 10.1568C18.1252 10.3663 18.1252 10.7062 17.9159 10.9156C17.7064 11.125 17.3666 11.125 17.1571 10.9156C16.9477 10.7062 16.9477 10.3663 17.1571 10.1568ZM19.0076 7.36089C19.4747 6.8938 20.1042 6.72035 20.658 6.97612C21.078 7.17014 21.3509 7.56333 21.4539 8.04546C21.9361 8.14839 22.3292 8.42216 22.5233 8.84233C22.7791 9.39619 22.6065 10.0247 22.1395 10.4917C21.8686 10.7626 21.5057 10.8854 21.1825 10.9429C20.8518 11.0017 20.5023 11.0026 20.1961 10.983C19.8869 10.9633 19.6034 10.9211 19.3983 10.8843C19.2954 10.8658 19.2108 10.8485 19.1512 10.8355L19.1043 10.8257L19.0614 10.815L19.0555 10.814L19.0535 10.813C19.0543 10.8093 19.0636 10.7684 19.1727 10.3277L19.0526 10.813C18.8726 10.7685 18.732 10.6277 18.6873 10.4478L18.6844 10.439L18.6805 10.4195C18.6766 10.4028 18.6714 10.3789 18.6649 10.3492C18.652 10.2896 18.6345 10.2051 18.616 10.1021C18.5791 9.89704 18.5362 9.61348 18.5164 9.30425C18.4968 8.99805 18.4987 8.64858 18.5575 8.31792C18.6149 7.99481 18.737 7.63172 19.0076 7.36089ZM16.8065 5.3101C16.8877 4.90393 17.2831 4.64001 17.6893 4.72124C18.0954 4.80256 18.3584 5.19794 18.2772 5.60405L18.1336 6.32378C17.9354 7.3146 17.2211 8.12339 16.2625 8.44292C15.8147 8.59227 15.481 8.97023 15.3885 9.43315L15.245 10.1529C15.1637 10.5591 14.7683 10.8229 14.3621 10.7417C13.956 10.6605 13.693 10.2651 13.7742 9.85893L13.9178 9.13921C14.1159 8.14839 14.8303 7.3396 15.7889 7.02007C16.2366 6.87067 16.5703 6.49268 16.6629 6.02983L16.8065 5.3101ZM20.2381 7.88432C20.1492 7.84349 19.9579 7.82565 19.7157 8.06792C19.6514 8.13216 19.5826 8.26315 19.5418 8.49272C19.5022 8.71492 19.4977 8.97739 19.5145 9.24077C19.5305 9.49082 19.5642 9.72596 19.5955 9.90385C19.7736 9.93524 20.0093 9.96986 20.2596 9.98589C20.5229 10.0028 20.7854 9.99805 21.0076 9.95854C21.237 9.91769 21.3683 9.84894 21.4325 9.78471C21.6751 9.54202 21.6569 9.34998 21.616 9.26128C21.5714 9.16489 21.4115 8.99849 21.0018 8.99956C20.8687 8.99992 20.7404 8.94716 20.6463 8.85307C20.5525 8.75905 20.5005 8.63142 20.5008 8.49858C20.5019 8.08877 20.3345 7.92884 20.2381 7.88432ZM12.1571 7.15678C12.3666 6.94737 12.7064 6.94733 12.9159 7.15678C13.1252 7.36625 13.1252 7.70612 12.9159 7.91557C12.7064 8.12501 12.3666 8.12496 12.1571 7.91557C11.9477 7.7061 11.9477 7.36625 12.1571 7.15678ZM9.15511 2.38823C9.37116 2.03482 9.83298 1.92316 10.1864 2.13921C10.5397 2.35529 10.6515 2.81709 10.4354 3.17046C10.2788 3.42684 10.3177 3.75676 10.5301 3.96928L10.6278 4.06792C11.2163 4.65657 11.4341 5.52109 11.1932 6.31792C11.0734 6.71439 10.6541 6.93874 10.2576 6.81889C9.86124 6.69897 9.63684 6.27978 9.75667 5.88335C9.8374 5.61589 9.76472 5.32605 9.56722 5.12846L9.46956 5.02983C8.76727 4.32742 8.63722 3.23578 9.15511 2.38823ZM13.16 2.05717C13.4248 1.91802 13.6766 1.99229 13.826 2.05717C13.9583 2.11468 14.1075 2.208 14.2459 2.29546L14.3485 2.36089L14.4744 2.32475C14.638 2.27819 14.8105 2.22951 14.9539 2.2105C15.1056 2.19042 15.3818 2.18051 15.6014 2.39995C15.8212 2.61972 15.8119 2.89672 15.7918 3.04839C15.7728 3.1917 15.7232 3.36336 15.6766 3.5269L15.6414 3.65288L15.7059 3.75542C15.7934 3.89393 15.8876 4.04298 15.9451 4.17534C16.01 4.32474 16.0834 4.57665 15.9442 4.84135C15.8077 5.10104 15.5637 5.18681 15.408 5.22221C15.3373 5.23829 15.2576 5.25023 15.1746 5.25932L14.7938 5.29155H14.783L14.6912 5.40385C14.5817 5.53708 14.4674 5.6749 14.3602 5.773C14.2466 5.87689 14.0332 6.03719 13.7362 5.99663C13.429 5.95457 13.2694 5.73243 13.1922 5.59331C13.1224 5.46741 13.0607 5.30147 13.0037 5.14702L12.9637 5.03764L12.8553 4.9976C12.7009 4.94069 12.5349 4.87984 12.409 4.8101C12.27 4.733 12.047 4.57327 12.0047 4.26616C11.964 3.96892 12.1244 3.75478 12.2284 3.64116C12.3263 3.53408 12.4644 3.42057 12.5975 3.31108L12.7098 3.21831L12.7108 3.20854L12.7205 3.08061C12.7335 2.91229 12.7469 2.73485 12.7791 2.59331C12.8145 2.43774 12.9004 2.19364 13.16 2.05717ZM6.92757 3.94096C7.13704 3.73149 7.47689 3.73149 7.68636 3.94096C7.89543 4.15037 7.89545 4.48938 7.68636 4.69878C7.47689 4.90825 7.13704 4.90825 6.92757 4.69878C6.71836 4.48936 6.71837 4.15039 6.92757 3.94096ZM13.7078 3.28569L13.7059 3.30717C13.7006 3.38646 13.6894 3.54662 13.6131 3.69194C13.5379 3.83498 13.4143 3.93514 13.3514 3.98589L13.3338 4.00053L13.243 4.07475L13.3201 4.10405L13.3397 4.11089C13.4115 4.1363 13.5693 4.19214 13.6893 4.31206C13.8093 4.4321 13.866 4.5899 13.8914 4.66167L13.8983 4.6812L13.9266 4.75835L14.0018 4.66753L14.0155 4.65092C14.0662 4.58809 14.1661 4.4636 14.3094 4.38823C14.4547 4.31186 14.6149 4.30077 14.6942 4.29546L14.7157 4.29448L14.8563 4.28276L14.7928 4.18217L14.7821 4.1646C14.7403 4.10027 14.6498 3.96192 14.6268 3.79448C14.6044 3.63074 14.6513 3.47338 14.6737 3.398L14.6795 3.37749L14.702 3.29936L14.6239 3.32182L14.6034 3.32768C14.528 3.35009 14.3706 3.39698 14.2069 3.37456C14.0397 3.35161 13.9012 3.26205 13.8367 3.22026L13.8192 3.20854L13.7186 3.14507L13.7078 3.28569Z" fill="#C9C9C9"/>
</svg>
