<svg width="16" height="16" viewBox="0 0 16 16" fill="none" xmlns="http://www.w3.org/2000/svg">
<path fill-rule="evenodd" clip-rule="evenodd" d="M3.68624 5.84346C2.49504 5.84346 1.52938 6.80911 1.52938 8.00032C1.52938 9.19154 2.49504 10.1572 3.68624 10.1572C4.87744 10.1572 5.8431 9.19154 5.8431 8.00032C5.8431 6.80911 4.87744 5.84346 3.68624 5.84346ZM0.352905 8.00032C0.352905 6.15938 1.84529 4.66699 3.68624 4.66699C5.22184 4.66699 6.51494 5.70534 6.90161 7.11829C7.60616 6.8346 8.39377 6.8346 9.09832 7.11829C9.48498 5.70534 10.7781 4.66699 12.3137 4.66699C14.1546 4.66699 15.647 6.15938 15.647 8.00032C15.647 9.84127 14.1546 11.3337 12.3137 11.3337C10.5992 11.3337 9.18694 10.0391 9.00106 8.37421L8.78914 8.26825C8.29236 8.01985 7.70757 8.01985 7.21079 8.26825L6.99887 8.37421C6.81298 10.0391 5.40078 11.3337 3.68624 11.3337C1.84529 11.3337 0.352905 9.84127 0.352905 8.00032ZM12.3137 5.84346C11.1225 5.84346 10.1568 6.80911 10.1568 8.00032C10.1568 9.19154 11.1225 10.1572 12.3137 10.1572C13.5049 10.1572 14.4706 9.19154 14.4706 8.00032C14.4706 6.80911 13.5049 5.84346 12.3137 5.84346Z" fill="#C9C9C9"/>
</svg>
