<svg width="16" height="16" viewBox="0 0 16 16" fill="none" xmlns="http://www.w3.org/2000/svg">
<g clip-path="url(#clip0_384_56955)">
<path fill-rule="evenodd" clip-rule="evenodd" d="M4.83524 2.83714C5.39603 1.65317 6.60176 0.833496 8.00001 0.833496C9.39828 0.833496 10.604 1.65317 11.1647 2.83714C11.2207 2.83472 11.2769 2.8335 11.3333 2.8335C13.4504 2.8335 15.1667 4.54974 15.1667 6.66683C15.1667 8.12056 14.3575 9.3843 13.1667 10.034V12.0348C13.1667 12.6338 13.1667 13.1333 13.1134 13.5298C13.0571 13.9484 12.9333 14.3262 12.6297 14.6298C12.3261 14.9335 11.9482 15.0573 11.5297 15.1136C11.1331 15.1669 10.6337 15.1668 10.0347 15.1668H5.96535C5.36636 15.1668 4.86688 15.1669 4.47036 15.1136C4.05183 15.0573 3.67396 14.9335 3.37032 14.6298C3.06667 14.3262 2.94289 13.9484 2.88662 13.5298C2.8333 13.1333 2.83332 12.6338 2.83334 12.0348V10.034C1.64248 9.3843 0.833344 8.12056 0.833344 6.66683C0.833344 4.54974 2.54958 2.8335 4.66668 2.8335C4.72314 2.8335 4.77934 2.83472 4.83524 2.83714ZM4.53509 3.8365C3.03137 3.90524 1.83334 5.14613 1.83334 6.66683C1.83334 7.8279 2.5318 8.82696 3.53353 9.26463C3.71564 9.34416 3.83334 9.5241 3.83334 9.72283V12.0002C3.83334 12.6428 3.8344 13.0746 3.8777 13.3966C3.91906 13.7042 3.99054 13.8359 4.07742 13.9228C4.1643 14.0096 4.29596 14.0811 4.6036 14.1225C4.92563 14.1658 5.35734 14.1668 6.00001 14.1668H10C10.6427 14.1668 11.0744 14.1658 11.3964 14.1225C11.7041 14.0811 11.8357 14.0096 11.9226 13.9228C12.0095 13.8359 12.0809 13.7042 12.1223 13.3966C12.1656 13.0746 12.1667 12.6428 12.1667 12.0002V9.72283C12.1667 9.5241 12.2843 9.34416 12.4665 9.26463C13.4682 8.82696 14.1667 7.8279 14.1667 6.66683C14.1667 5.14613 12.9687 3.90524 11.4649 3.8365C11.4881 3.999 11.5 4.16495 11.5 4.3335V4.66683C11.5 4.94297 11.2761 5.16683 11 5.16683C10.7239 5.16683 10.5 4.94297 10.5 4.66683V4.3335C10.5 4.0516 10.4535 3.78158 10.3683 3.53007C10.0335 2.54284 9.09894 1.8335 8.00001 1.8335C6.90108 1.8335 5.96655 2.54284 5.63176 3.53007C5.54648 3.78158 5.50001 4.0516 5.50001 4.3335V4.66683C5.50001 4.94297 5.27615 5.16683 5.00001 5.16683C4.72387 5.16683 4.50001 4.94297 4.50001 4.66683V4.3335C4.50001 4.16494 4.51196 3.999 4.53509 3.8365ZM5.50001 12.0002C5.50001 11.724 5.72387 11.5002 6.00001 11.5002H10C10.2761 11.5002 10.5 11.724 10.5 12.0002C10.5 12.2763 10.2761 12.5002 10 12.5002H6.00001C5.72387 12.5002 5.50001 12.2763 5.50001 12.0002Z" fill="#EEB823"/>
</g>
<defs>
<clipPath id="clip0_384_56955">
<rect width="16" height="16" fill="white"/>
</clipPath>
</defs>
</svg>
