<svg width="16" height="16" viewBox="0 0 16 16" fill="none" xmlns="http://www.w3.org/2000/svg">
<path d="M5.00047 11.4994C5.82858 11.4996 6.50022 12.1713 6.50047 12.9994C6.50047 13.8277 5.82874 14.4992 5.00047 14.4994C4.17205 14.4994 3.50047 13.8278 3.50047 12.9994C3.50073 12.1712 4.17221 11.4994 5.00047 11.4994ZM11.0005 11.4994C11.8286 11.4996 12.5002 12.1713 12.5005 12.9994C12.5005 13.8277 11.8287 14.4992 11.0005 14.4994C10.1721 14.4994 9.50047 13.8278 9.50047 12.9994C9.50073 12.1712 10.1722 11.4994 11.0005 11.4994ZM5.00047 12.4994C4.72449 12.4994 4.50073 12.7235 4.50047 12.9994C4.50047 13.2755 4.72433 13.4994 5.00047 13.4994C5.27646 13.4992 5.50047 13.2754 5.50047 12.9994C5.50022 12.7236 5.2763 12.4996 5.00047 12.4994ZM11.0005 12.4994C10.7245 12.4994 10.5007 12.7235 10.5005 12.9994C10.5005 13.2755 10.7243 13.4994 11.0005 13.4994C11.2764 13.4992 11.5005 13.2754 11.5005 12.9994C11.5002 12.7236 11.2763 12.4996 11.0005 12.4994ZM0.858872 1.84218C0.946198 1.58021 1.22972 1.43845 1.49168 1.52578L1.69481 1.59316C2.11228 1.7323 2.46523 1.84984 2.74266 1.9789C3.03757 2.11611 3.29373 2.28683 3.48778 2.55605C3.68159 2.82517 3.76145 3.1217 3.79832 3.44472C3.80038 3.46272 3.80237 3.48094 3.80418 3.49941H11.0073C11.6579 3.49938 12.2024 3.50028 12.6186 3.56191C13.0529 3.62622 13.4717 3.77367 13.7358 4.17421C13.9999 4.57481 13.9709 5.01829 13.8589 5.44277C13.7515 5.84961 13.537 6.34984 13.2807 6.94765L12.9692 7.67421C12.8517 7.94855 12.7486 8.19009 12.6411 8.38125C12.5246 8.58831 12.3818 8.77631 12.1665 8.91835C11.9511 9.06035 11.7221 9.11743 11.4858 9.14296C11.2676 9.16649 11.0044 9.1664 10.7056 9.1664H4.10301C4.1522 9.25562 4.2085 9.3295 4.27293 9.39394C4.45744 9.57835 4.71649 9.69834 5.20555 9.76406C5.70912 9.83179 6.37654 9.83339 7.33348 9.83339H12.6665C12.9426 9.83339 13.1665 10.0573 13.1665 10.3334C13.1664 10.6094 12.9426 10.8334 12.6665 10.8334H7.29735C6.38584 10.8334 5.65065 10.8329 5.07274 10.7553C4.47272 10.6746 3.96716 10.5022 3.5659 10.101C3.16463 9.6997 2.99228 9.1942 2.91161 8.59414C2.83392 8.01622 2.83347 7.28121 2.83348 6.36953V4.58828C2.83348 4.1131 2.83264 3.79862 2.80516 3.558C2.77915 3.33013 2.73386 3.21996 2.67625 3.14003C2.61866 3.06018 2.52848 2.98277 2.32079 2.88613C2.10115 2.78395 1.80298 2.68292 1.35204 2.53261L1.17528 2.47402C0.91355 2.3867 0.771892 2.10398 0.858872 1.84218ZM3.83348 6.33339C3.83348 7.11457 3.83447 7.70272 3.87157 8.1664H10.6811C11.0116 8.1664 11.2202 8.16588 11.3784 8.14882C11.524 8.13308 11.5805 8.10744 11.6157 8.08437C11.6508 8.06124 11.6969 8.01908 11.769 7.89101C11.847 7.75229 11.9299 7.56098 12.06 7.25722L12.3462 6.59121C12.6225 5.94641 12.8059 5.51362 12.8921 5.18691C12.9756 4.87022 12.9331 4.77394 12.9009 4.725C12.8687 4.67609 12.797 4.59827 12.4722 4.55019C12.1379 4.50072 11.6687 4.49941 10.9673 4.49941H3.83348V6.33339Z" fill="white" fill-opacity="0.5"/>
</svg>
